<svg id="svg" version="1.1" width="400" height="58.24411134903641" viewBox="0 0 400 58.24411134903641"
     xmlns="http://www.w3.org/2000/svg">
    <g id="svgg">
        <path id="path0"
              d="M8.651 18.990 L 8.162 19.479 8.213 29.781 C 8.268 40.871,8.268 40.873,9.178 42.770 C 10.650 45.843,12.274 46.318,21.333 46.320 C 27.394 46.322,28.608 46.096,30.390 44.637 C 30.926 44.198,34.896 38.296,36.533 35.503 L 37.167 34.422 37.167 26.634 C 37.167 17.448,37.539 18.470,34.217 18.537 L 31.930 18.583 31.803 19.167 C 31.733 19.487,31.679 22.908,31.682 26.768 C 31.687 34.712,31.862 33.661,30.098 36.285 C 28.539 38.602,27.468 40.060,27.095 40.371 C 26.610 40.776,16.112 40.819,15.338 40.419 C 13.868 39.659,13.838 39.424,13.821 28.545 C 13.808 20.327,13.771 18.961,13.558 18.748 C 13.028 18.218,9.236 18.405,8.651 18.990 M95.204 29.792 L 95.250 39.417 95.700 40.333 C 96.403 41.764,97.358 42.617,99.000 43.280 C 99.986 43.679,109.607 43.743,110.433 43.357 C 110.699 43.233,111.179 43.008,111.500 42.857 C 112.228 42.516,113.513 41.258,113.873 40.537 C 114.473 39.336,114.519 38.446,114.467 29.250 L 114.417 20.250 112.542 20.203 L 110.667 20.156 110.667 28.786 C 110.668 38.483,110.655 38.611,109.513 39.481 L 108.943 39.917 104.846 39.917 C 98.585 39.917,99.113 40.886,98.990 29.167 C 98.939 24.262,98.883 20.231,98.865 20.208 C 98.848 20.185,98.007 20.167,96.996 20.167 L 95.159 20.167 95.204 29.792 M145.667 30.073 C 145.667 35.654,145.731 40.020,145.814 40.072 C 145.896 40.122,146.011 40.423,146.071 40.742 C 146.390 42.441,148.185 43.500,150.747 43.500 L 152.333 43.500 152.333 41.750 L 152.333 40.000 151.542 39.998 C 149.237 39.991,149.333 40.455,149.333 29.340 L 149.333 20.167 147.500 20.167 L 145.667 20.167 145.667 30.073 M211.987 20.331 C 211.843 20.415,211.589 20.807,211.423 21.200 C 211.258 21.594,210.945 22.312,210.728 22.796 C 210.511 23.280,210.333 23.750,210.333 23.840 C 210.333 23.931,210.262 24.135,210.175 24.294 C 210.088 24.453,209.892 24.883,209.741 25.250 C 209.590 25.617,209.403 26.067,209.325 26.250 C 209.248 26.433,208.945 27.183,208.652 27.917 C 208.359 28.650,208.055 29.321,207.976 29.408 C 207.898 29.495,207.833 29.673,207.833 29.802 C 207.833 29.932,207.533 30.714,207.167 31.540 C 206.800 32.366,206.500 33.106,206.500 33.183 C 206.500 33.261,206.305 33.758,206.066 34.287 C 205.827 34.817,205.569 35.400,205.492 35.583 C 205.415 35.767,205.209 36.254,205.035 36.667 C 204.862 37.079,204.625 37.679,204.509 38.000 C 204.266 38.676,204.170 38.908,203.593 40.213 C 203.358 40.743,203.167 41.217,203.167 41.266 C 203.167 41.315,202.979 41.765,202.750 42.266 C 202.164 43.547,202.104 43.500,204.313 43.500 C 206.630 43.500,206.376 43.697,207.324 41.167 C 207.719 40.112,208.184 38.931,208.358 38.542 L 208.675 37.833 213.650 37.833 C 217.748 37.833,218.661 37.875,218.823 38.070 C 219.016 38.304,219.444 39.366,219.935 40.833 C 220.172 41.543,220.351 41.977,220.844 43.042 L 221.056 43.500 223.028 43.500 C 224.496 43.500,224.999 43.447,224.998 43.292 C 224.993 42.889,223.628 39.379,222.566 37.037 C 222.346 36.553,222.167 36.084,222.167 35.993 C 222.167 35.903,222.096 35.699,222.011 35.539 C 221.624 34.822,221.333 34.093,221.333 33.841 C 221.333 33.690,221.271 33.495,221.195 33.408 C 221.119 33.321,220.812 32.650,220.513 31.917 C 220.214 31.183,219.901 30.453,219.818 30.294 C 219.735 30.135,219.667 29.934,219.667 29.847 C 219.667 29.761,219.450 29.216,219.186 28.637 C 218.922 28.057,218.606 27.283,218.485 26.917 C 218.363 26.550,218.211 26.175,218.146 26.083 C 218.082 25.992,217.794 25.317,217.507 24.583 C 217.219 23.850,216.886 23.025,216.767 22.750 C 216.648 22.475,216.451 21.988,216.329 21.667 C 215.792 20.248,215.657 20.166,213.864 20.172 C 212.976 20.175,212.132 20.246,211.987 20.331 M238.167 23.722 C 238.167 27.498,238.152 27.593,237.603 27.298 C 236.568 26.741,231.867 26.460,230.167 26.853 C 228.563 27.224,227.200 28.291,226.467 29.750 C 225.603 31.469,225.575 39.129,226.429 40.452 C 226.560 40.655,226.667 40.904,226.667 41.004 C 226.667 41.304,227.938 42.563,228.531 42.852 C 228.835 42.999,229.301 43.224,229.568 43.352 C 229.951 43.535,231.146 43.582,235.246 43.578 C 240.966 43.571,240.848 43.592,241.655 42.452 C 241.919 42.080,242.168 21.537,241.920 20.542 C 241.831 20.181,241.756 20.167,239.997 20.167 L 238.167 20.167 238.167 23.722 M193.042 21.774 C 192.887 21.839,192.833 22.548,192.833 24.511 L 192.833 27.160 192.208 27.473 C 191.865 27.645,191.389 27.833,191.152 27.889 C 190.252 28.105,189.833 28.618,189.833 29.506 L 189.833 30.320 191.292 30.369 L 192.750 30.417 192.846 34.833 C 192.963 40.183,193.332 41.811,194.583 42.491 C 194.767 42.590,195.254 42.856,195.667 43.081 C 196.624 43.604,201.044 43.727,201.232 43.236 C 201.375 42.865,201.354 40.455,201.206 40.230 C 201.134 40.121,200.346 40.012,199.301 39.966 C 196.478 39.844,196.431 39.749,196.560 34.454 C 196.611 32.366,196.698 30.584,196.753 30.495 C 196.809 30.405,197.761 30.333,198.917 30.333 C 201.341 30.333,201.221 30.431,201.206 28.451 C 201.191 26.614,201.271 26.672,198.802 26.669 C 196.446 26.666,196.606 26.851,196.500 24.000 L 196.417 21.750 194.833 21.719 C 193.963 21.701,193.156 21.726,193.042 21.774 M283.692 21.886 C 283.585 22.015,283.491 23.063,283.463 24.428 L 283.417 26.750 282.833 27.036 C 282.512 27.193,281.913 27.418,281.501 27.536 C 280.701 27.765,280.393 28.172,280.222 29.225 C 280.077 30.119,280.437 30.333,282.084 30.333 L 283.478 30.333 283.531 35.375 C 283.590 41.075,283.587 41.058,285.032 42.363 C 286.047 43.280,286.925 43.500,289.570 43.500 C 292.203 43.500,292.048 43.635,291.966 41.416 L 291.917 40.083 289.987 39.987 C 288.235 39.899,288.020 39.853,287.653 39.487 L 287.250 39.084 287.250 34.750 L 287.250 30.417 289.333 30.373 C 291.932 30.320,292.000 30.268,292.000 28.321 C 292.000 26.682,291.976 26.667,289.461 26.667 C 287.058 26.667,287.167 26.789,287.167 24.068 C 287.167 22.217,287.125 21.853,286.903 21.768 C 286.377 21.566,283.881 21.658,283.692 21.886 M214.164 25.792 C 214.166 25.908,214.354 26.390,214.583 26.865 C 214.813 27.340,215.000 27.801,215.000 27.889 C 215.000 27.977,215.403 29.070,215.896 30.316 C 217.273 33.800,217.346 34.011,217.243 34.178 C 217.103 34.404,210.382 34.381,210.242 34.154 C 210.146 33.998,210.354 33.260,210.826 32.083 C 210.900 31.900,211.092 31.412,211.253 31.000 C 211.414 30.587,211.689 29.924,211.864 29.526 C 212.040 29.128,212.339 28.378,212.529 27.860 C 212.719 27.341,212.940 26.845,213.021 26.758 C 213.101 26.671,213.167 26.475,213.167 26.322 C 213.167 25.867,213.852 25.095,214.021 25.361 C 214.098 25.483,214.163 25.677,214.164 25.792 M122.602 26.787 C 122.536 26.853,121.900 26.919,121.189 26.934 C 119.708 26.965,118.747 27.352,118.181 28.147 C 117.841 28.624,117.833 28.802,117.833 36.073 L 117.833 43.511 119.625 43.464 L 121.417 43.417 121.500 37.150 C 121.566 32.179,121.631 30.827,121.812 30.609 C 122.251 30.080,127.326 30.210,127.846 30.763 L 128.250 31.193 128.333 37.305 L 128.417 43.417 130.292 43.464 L 132.167 43.511 132.167 37.122 C 132.167 32.375,132.218 30.682,132.367 30.533 C 132.505 30.395,133.371 30.333,135.187 30.333 L 137.808 30.333 138.321 30.846 L 138.833 31.359 138.833 37.166 C 138.833 40.360,138.879 43.091,138.934 43.236 C 139.094 43.652,142.491 43.626,142.521 43.208 C 142.699 40.792,142.424 30.018,142.170 29.423 C 141.774 28.500,140.385 27.277,139.349 26.938 C 138.388 26.623,132.933 26.537,132.750 26.833 C 132.693 26.925,132.474 27.000,132.263 27.000 C 132.052 27.000,131.591 27.196,131.238 27.435 C 130.736 27.776,130.541 27.830,130.340 27.684 C 129.991 27.431,129.206 27.078,128.488 26.853 C 127.836 26.649,122.797 26.592,122.602 26.787 M155.095 26.929 C 154.904 27.120,154.833 27.526,154.833 28.440 C 154.833 30.485,154.435 30.333,159.815 30.333 L 164.451 30.333 164.901 30.750 C 165.304 31.123,165.345 31.265,165.300 32.125 L 165.250 33.083 161.250 33.184 C 157.267 33.283,156.886 33.325,155.897 33.764 C 152.705 35.182,152.809 41.351,156.053 43.076 L 156.851 43.500 163.016 43.500 L 169.181 43.500 169.132 36.958 C 169.069 28.524,168.863 27.977,165.322 26.855 C 164.311 26.535,155.425 26.599,155.095 26.929 M172.308 26.875 C 172.112 28.511,172.237 39.057,172.462 39.833 C 173.340 42.864,174.786 43.583,180.000 43.583 C 184.140 43.583,184.652 43.467,185.991 42.225 C 187.772 40.573,187.866 40.070,187.801 32.583 L 187.750 26.750 185.963 26.703 C 183.775 26.645,184.015 25.866,183.960 33.205 L 183.917 38.993 183.455 39.455 C 182.994 39.916,182.987 39.917,180.337 39.970 C 175.799 40.060,176.000 40.392,176.000 32.792 C 176.000 28.561,175.948 27.014,175.800 26.867 C 175.516 26.582,172.343 26.590,172.308 26.875 M245.912 27.042 C 245.861 27.248,245.840 28.054,245.867 28.833 L 245.917 30.250 250.524 30.294 L 255.132 30.339 255.649 30.868 C 256.251 31.483,256.411 32.871,255.903 33.066 C 255.758 33.121,254.114 33.167,252.249 33.167 C 247.831 33.167,247.037 33.344,245.613 34.652 C 244.094 36.048,244.115 40.604,245.650 42.184 C 247.003 43.578,247.197 43.606,254.875 43.542 L 259.833 43.500 259.831 37.042 C 259.829 32.239,259.774 30.434,259.616 30.000 C 258.974 28.231,258.135 27.469,256.155 26.852 C 255.776 26.734,253.820 26.667,250.783 26.667 L 246.006 26.667 245.912 27.042 M266.649 26.918 C 265.439 27.250,263.500 28.667,263.500 29.219 C 263.500 29.300,263.387 29.605,263.249 29.896 C 263.032 30.353,263.003 31.750,263.040 40.005 L 263.083 49.583 264.642 49.631 C 266.768 49.697,266.651 49.897,266.642 46.225 C 266.633 42.651,266.546 42.877,267.782 43.273 C 268.986 43.659,274.828 43.739,275.192 43.375 C 275.306 43.260,275.495 43.167,275.611 43.167 C 277.449 43.167,279.167 39.833,279.167 36.263 C 279.167 30.980,278.307 28.374,276.273 27.489 C 276.077 27.404,275.804 27.268,275.667 27.187 C 274.754 26.648,268.331 26.457,266.649 26.918 M294.970 26.886 C 294.806 27.050,294.771 27.506,294.833 28.678 L 294.917 30.250 299.478 30.294 C 304.765 30.346,304.868 30.373,305.073 31.741 C 305.286 33.160,305.383 33.126,300.877 33.205 C 294.649 33.313,293.500 34.103,293.460 38.306 C 293.441 40.291,293.475 40.443,294.268 41.880 C 294.536 42.368,295.656 43.167,296.070 43.167 C 296.204 43.167,296.360 43.242,296.417 43.333 C 296.482 43.440,298.756 43.500,302.690 43.500 L 308.860 43.500 308.805 36.792 C 308.751 30.284,308.739 30.063,308.389 29.417 C 307.749 28.233,306.574 27.303,305.155 26.855 C 304.249 26.569,295.261 26.597,294.970 26.886 M317.000 26.833 C 316.862 26.922,316.246 26.996,315.631 26.997 C 311.952 27.006,311.786 27.702,311.984 42.292 L 312.000 43.500 313.732 43.500 C 315.879 43.500,315.667 44.175,315.667 37.345 C 315.667 29.956,315.481 30.333,319.116 30.333 C 321.423 30.333,321.610 30.243,321.424 29.211 C 321.362 28.866,321.272 28.152,321.224 27.625 L 321.137 26.667 319.194 26.669 C 318.125 26.671,317.137 26.744,317.000 26.833 M328.000 26.831 C 327.862 26.921,327.253 26.996,326.646 26.997 C 325.479 27.000,324.290 27.398,323.798 27.952 C 323.031 28.815,323.000 29.150,323.000 36.520 L 323.000 43.500 324.833 43.500 L 326.667 43.500 326.667 37.575 C 326.667 29.933,326.416 30.477,330.000 30.338 L 332.250 30.250 332.250 28.500 L 332.250 26.750 330.250 26.708 C 329.138 26.685,328.139 26.739,328.000 26.831 M237.545 30.845 L 238.167 31.358 238.167 35.506 C 238.167 40.501,238.578 40.000,234.480 40.000 C 231.027 40.000,230.098 39.769,229.904 38.860 C 229.853 38.616,229.740 38.244,229.655 38.034 C 229.570 37.823,229.501 36.511,229.503 35.117 C 229.505 32.222,229.676 31.498,230.519 30.794 L 231.071 30.333 233.997 30.333 L 236.924 30.333 237.545 30.845 M274.053 30.523 C 275.845 31.454,275.932 38.805,274.162 39.714 C 273.202 40.207,267.963 40.069,267.208 39.530 L 266.667 39.144 266.667 35.270 L 266.667 31.397 267.186 30.865 L 267.706 30.333 270.697 30.333 C 272.605 30.333,273.820 30.402,274.053 30.523 M165.250 38.333 L 165.250 39.917 161.550 39.917 C 157.256 39.917,157.417 39.976,157.417 38.394 C 157.417 36.655,157.429 36.650,161.731 36.705 L 165.250 36.750 165.250 38.333 M256.083 38.333 L 256.083 39.917 252.787 39.962 C 248.207 40.025,247.921 39.884,248.244 37.734 C 248.398 36.703,248.502 36.679,252.583 36.717 L 256.083 36.750 256.083 38.333 M305.001 36.918 C 305.221 37.183,305.168 39.426,304.934 39.806 C 304.758 40.089,298.233 40.071,297.667 39.785 C 297.058 39.478,296.960 37.658,297.521 37.061 C 297.994 36.558,304.597 36.431,305.001 36.918 "
              stroke="none" fill="#f5f5f5" fill-rule="evenodd"></path>
        <path id="path1"
              d="M14.699 7.777 C 12.776 8.728,11.868 11.516,13.009 12.966 C 13.188 13.193,13.333 13.475,13.333 13.594 C 13.333 13.991,15.061 14.827,16.109 14.937 C 17.473 15.080,19.667 13.796,19.667 12.855 C 19.667 12.671,19.742 12.473,19.833 12.417 C 20.075 12.267,20.033 10.526,19.769 9.767 C 19.118 7.898,16.517 6.877,14.699 7.777 M28.667 7.497 C 28.529 7.576,28.117 7.783,27.750 7.957 C 25.725 8.916,25.191 11.917,26.748 13.596 C 26.978 13.845,27.167 14.113,27.167 14.191 C 27.167 14.269,27.260 14.334,27.375 14.334 C 27.490 14.335,27.808 14.460,28.083 14.613 C 29.425 15.358,31.156 14.876,32.482 13.388 L 33.333 12.433 33.333 11.170 C 33.333 10.258,33.255 9.793,33.051 9.495 C 32.511 8.706,31.531 7.867,31.019 7.754 C 30.736 7.692,30.461 7.572,30.409 7.487 C 30.290 7.295,29.004 7.302,28.667 7.497 M342.333 13.500 C 342.196 13.589,341.746 13.664,341.333 13.667 C 340.049 13.675,340.152 12.700,340.084 25.516 C 340.050 31.878,340.005 37.533,339.984 38.083 C 339.962 38.633,340.005 39.615,340.078 40.264 C 340.166 41.053,340.147 41.639,340.018 42.028 C 339.808 42.664,340.109 43.728,340.535 43.859 C 340.718 43.915,346.821 43.911,359.021 43.848 L 361.793 43.833 361.973 43.375 C 362.179 42.851,362.333 40.348,362.209 39.549 C 362.080 38.723,361.452 38.659,353.000 38.619 L 345.583 38.583 345.583 34.917 L 345.583 31.250 353.243 31.207 C 357.456 31.183,360.965 31.102,361.040 31.027 C 361.322 30.744,361.298 26.686,361.012 26.433 C 360.798 26.243,359.398 26.191,353.417 26.149 C 349.383 26.121,345.955 26.037,345.798 25.963 C 345.540 25.842,345.516 25.492,345.548 22.373 L 345.583 18.917 353.750 18.829 C 358.242 18.781,361.935 18.725,361.958 18.704 C 362.062 18.610,361.981 14.230,361.872 14.067 C 361.637 13.716,360.856 13.682,352.457 13.656 C 347.744 13.641,343.956 13.564,343.905 13.481 C 343.783 13.283,342.648 13.297,342.333 13.500 M366.917 13.507 C 366.733 13.582,366.150 13.649,365.620 13.655 C 364.585 13.668,364.255 13.946,364.641 14.481 C 364.748 14.629,364.883 14.851,364.942 14.975 C 365.001 15.099,365.225 15.377,365.441 15.592 C 365.657 15.808,365.833 16.065,365.833 16.164 C 365.833 16.263,366.115 16.713,366.458 17.166 C 366.802 17.619,367.346 18.376,367.667 18.849 C 367.988 19.321,368.381 19.828,368.542 19.974 C 368.702 20.121,368.833 20.305,368.833 20.383 C 368.833 20.564,370.351 22.734,371.342 23.971 C 371.759 24.491,372.356 25.329,372.670 25.833 C 372.983 26.337,373.283 26.787,373.336 26.833 C 373.390 26.879,373.667 27.267,373.953 27.696 L 374.472 28.475 374.089 29.191 C 373.878 29.584,373.472 30.185,373.186 30.525 C 372.901 30.866,372.667 31.213,372.667 31.298 C 372.667 31.382,372.498 31.635,372.292 31.860 C 372.085 32.084,371.626 32.709,371.270 33.248 C 370.540 34.353,370.530 34.367,369.837 35.162 C 369.560 35.480,369.333 35.839,369.333 35.959 C 369.333 36.079,369.228 36.218,369.098 36.267 C 368.969 36.317,368.817 36.541,368.761 36.766 C 368.704 36.991,368.518 37.315,368.347 37.487 C 368.175 37.658,367.933 37.985,367.809 38.212 C 367.463 38.846,365.859 41.131,365.683 41.240 C 365.463 41.376,364.167 43.297,364.167 43.487 C 364.167 43.953,369.677 44.078,370.322 43.626 C 370.678 43.378,371.664 42.097,371.670 41.876 C 371.672 41.807,371.825 41.563,372.009 41.333 C 372.342 40.918,373.024 39.909,374.146 38.167 C 374.826 37.111,374.823 37.114,375.494 36.311 C 375.772 35.978,376.000 35.622,376.000 35.520 C 376.000 35.417,376.075 35.333,376.167 35.333 C 376.258 35.333,376.333 35.187,376.333 35.008 C 376.333 34.830,376.427 34.623,376.542 34.550 C 376.657 34.477,376.860 34.205,376.994 33.945 C 377.456 33.049,377.823 33.027,378.534 33.851 C 378.881 34.254,379.166 34.642,379.166 34.714 C 379.167 34.835,380.793 37.314,380.994 37.500 C 381.160 37.654,382.500 39.676,382.500 39.773 C 382.500 39.826,382.800 40.246,383.167 40.706 C 383.533 41.167,383.835 41.627,383.837 41.730 C 383.840 41.833,384.233 42.349,384.712 42.877 L 385.583 43.838 387.000 43.858 C 391.828 43.924,391.756 43.954,390.667 42.313 C 390.300 41.761,390.000 41.274,390.000 41.231 C 390.000 41.188,389.681 40.734,389.292 40.224 C 388.902 39.713,388.457 39.097,388.302 38.856 C 388.147 38.614,387.922 38.307,387.802 38.173 C 387.682 38.039,387.508 37.799,387.417 37.641 C 387.169 37.213,385.162 34.286,384.006 32.667 C 383.450 31.887,382.790 30.961,382.539 30.608 C 382.289 30.255,381.886 29.626,381.645 29.211 L 381.206 28.457 381.605 27.853 C 381.824 27.522,382.193 27.025,382.426 26.750 C 383.079 25.977,383.108 25.935,383.847 24.723 C 384.229 24.096,384.609 23.558,384.692 23.526 C 384.775 23.495,384.986 23.195,385.161 22.860 C 385.336 22.524,385.679 22.025,385.922 21.750 C 386.166 21.475,386.479 21.030,386.619 20.762 C 386.758 20.494,387.375 19.631,387.990 18.845 C 388.604 18.060,389.474 16.865,389.921 16.190 C 390.369 15.515,390.833 14.926,390.951 14.880 C 391.070 14.835,391.167 14.589,391.167 14.334 C 391.167 13.746,390.903 13.694,387.687 13.642 L 385.290 13.603 384.649 14.343 C 384.296 14.750,383.441 15.993,382.748 17.104 C 382.055 18.216,381.341 19.259,381.161 19.422 C 380.981 19.585,380.833 19.806,380.833 19.913 C 380.833 20.021,380.646 20.285,380.417 20.500 C 380.188 20.715,380.000 20.973,380.000 21.072 C 380.000 21.172,379.831 21.441,379.625 21.671 C 379.419 21.901,378.957 22.522,378.599 23.052 C 378.242 23.582,377.899 23.956,377.838 23.883 C 377.194 23.115,376.018 21.455,375.767 20.961 C 375.593 20.619,375.274 20.224,375.059 20.083 C 374.843 19.941,374.667 19.719,374.667 19.588 C 374.667 19.457,374.471 19.140,374.233 18.884 C 373.994 18.627,373.686 18.135,373.548 17.792 C 373.410 17.448,373.239 17.167,373.169 17.167 C 373.098 17.167,372.582 16.457,372.021 15.590 C 370.805 13.707,370.740 13.667,368.961 13.667 C 368.194 13.667,367.495 13.600,367.408 13.519 C 367.321 13.438,367.100 13.432,366.917 13.507 M53.833 17.661 C 52.339 18.023,50.790 18.867,50.466 19.494 C 50.347 19.725,49.877 20.476,49.422 21.165 C 48.967 21.853,48.453 22.698,48.280 23.042 C 48.107 23.385,47.898 23.667,47.816 23.667 C 47.734 23.667,47.667 23.782,47.667 23.924 C 47.667 24.065,47.367 24.587,47.000 25.083 C 46.633 25.580,46.333 26.038,46.333 26.102 C 46.333 26.166,46.146 26.464,45.917 26.765 C 45.688 27.065,45.500 27.351,45.500 27.401 C 45.500 27.521,44.492 28.987,44.125 29.401 C 43.965 29.581,43.833 29.823,43.833 29.936 C 43.833 30.050,43.728 30.248,43.600 30.376 C 43.472 30.504,43.116 31.082,42.809 31.661 C 42.501 32.240,42.172 32.834,42.077 32.982 C 40.801 34.960,39.640 36.669,39.430 36.880 C 39.285 37.024,39.167 37.205,39.167 37.280 C 39.167 37.355,38.754 38.048,38.250 38.818 C 37.746 39.589,37.333 40.265,37.333 40.320 C 37.333 40.375,37.146 40.622,36.917 40.869 C 36.688 41.117,36.500 41.398,36.500 41.495 C 36.500 41.659,35.489 43.157,34.679 44.193 C 34.489 44.437,34.333 44.746,34.333 44.881 C 34.333 45.016,34.221 45.219,34.083 45.333 C 33.212 46.056,33.656 46.176,37.029 46.129 L 40.224 46.083 40.597 45.342 C 40.802 44.934,41.071 44.522,41.193 44.425 C 41.316 44.329,41.527 44.025,41.662 43.750 C 41.796 43.475,42.099 42.987,42.333 42.667 C 42.568 42.346,42.869 41.858,43.002 41.583 C 43.270 41.029,43.963 40.008,44.248 39.750 C 44.349 39.658,44.589 39.246,44.781 38.833 C 44.973 38.421,45.288 37.940,45.482 37.766 C 45.675 37.591,45.833 37.380,45.833 37.296 C 45.833 37.213,46.021 36.899,46.250 36.598 C 46.479 36.298,46.667 36.007,46.667 35.952 C 46.667 35.741,48.045 33.667,48.185 33.667 C 48.267 33.667,48.333 33.531,48.333 33.365 C 48.333 33.199,48.502 32.883,48.708 32.662 C 48.915 32.442,49.158 32.138,49.250 31.987 C 49.451 31.657,50.312 30.157,50.685 29.490 C 51.026 28.879,51.862 27.767,52.035 27.694 C 52.107 27.664,52.167 27.495,52.167 27.319 C 52.167 27.144,52.238 27.000,52.326 27.000 C 52.413 27.000,52.607 26.741,52.758 26.424 C 52.908 26.108,53.136 25.761,53.265 25.654 C 53.394 25.547,53.500 25.360,53.500 25.239 C 53.500 23.493,56.445 22.976,57.250 24.581 C 57.433 24.947,57.663 25.322,57.760 25.414 C 58.111 25.751,58.833 26.816,58.833 26.996 C 58.833 27.098,58.907 27.271,58.998 27.382 C 59.571 28.084,60.316 29.190,60.649 29.833 C 60.862 30.246,61.092 30.621,61.160 30.667 C 61.333 30.784,62.667 32.924,62.667 33.086 C 62.667 33.159,62.854 33.464,63.083 33.765 C 63.313 34.065,63.500 34.357,63.500 34.413 C 63.500 34.469,63.688 34.717,63.917 34.964 C 64.146 35.211,64.333 35.472,64.333 35.544 C 64.333 35.669,65.154 36.997,65.337 37.167 C 65.538 37.353,66.808 39.491,66.911 39.817 C 66.972 40.009,67.092 40.167,67.178 40.167 C 67.263 40.167,67.333 40.274,67.333 40.405 C 67.333 40.536,67.465 40.773,67.625 40.933 C 67.785 41.092,68.380 41.941,68.947 42.820 C 69.513 43.698,70.248 44.810,70.579 45.292 L 71.181 46.167 74.257 46.167 C 76.096 46.167,77.333 46.103,77.333 46.008 C 77.333 45.599,75.967 43.341,73.979 40.465 C 73.807 40.217,73.667 39.947,73.667 39.866 C 73.667 39.785,73.488 39.511,73.270 39.257 C 73.052 39.003,72.696 38.460,72.478 38.050 C 71.823 36.813,71.725 36.662,71.355 36.318 C 71.160 36.136,71.000 35.884,71.000 35.757 C 71.000 35.631,70.944 35.503,70.875 35.472 C 70.702 35.395,69.333 33.316,69.333 33.129 C 69.333 33.046,69.164 32.739,68.958 32.447 C 68.751 32.155,68.491 31.767,68.380 31.583 C 67.268 29.757,66.896 29.191,66.576 28.833 C 66.371 28.604,66.034 28.079,65.828 27.667 C 65.621 27.254,64.994 26.202,64.434 25.328 C 63.875 24.455,63.342 23.617,63.250 23.467 C 63.158 23.318,62.687 22.612,62.203 21.899 C 61.720 21.186,61.281 20.432,61.229 20.224 C 61.176 20.016,61.010 19.806,60.858 19.757 C 60.707 19.708,60.215 19.293,59.766 18.834 C 59.128 18.183,58.833 18.000,58.424 18.000 C 58.136 18.000,57.810 17.910,57.699 17.799 C 57.457 17.557,54.675 17.457,53.833 17.661 M53.154 34.184 L 52.725 34.342 52.798 39.129 C 52.883 44.718,52.980 44.989,54.518 43.953 C 54.829 43.744,55.376 43.435,55.734 43.266 C 56.092 43.098,56.880 42.641,57.484 42.251 C 58.089 41.861,59.033 41.310,59.583 41.027 C 62.148 39.704,62.294 38.887,60.165 37.770 C 59.662 37.506,59.167 37.187,59.065 37.061 C 58.963 36.936,58.825 36.833,58.757 36.833 C 58.690 36.833,58.401 36.665,58.116 36.458 C 57.831 36.252,57.294 35.930,56.924 35.742 C 56.553 35.555,55.770 35.086,55.182 34.701 C 54.074 33.973,53.870 33.921,53.154 34.184 M338.491 48.374 C 337.393 49.264,337.455 50.684,338.623 51.367 C 339.297 51.761,389.948 51.832,390.886 51.440 C 392.305 50.847,392.591 49.217,391.429 48.347 C 390.886 47.940,338.994 47.967,338.491 48.374 "
              stroke="none" fill="#f7c13b" fill-rule="evenodd"></path>
        <path id="path3"
              d="M14.333 7.702 C 12.786 8.580,12.333 9.406,12.333 11.346 C 12.333 13.166,13.857 15.011,15.333 14.979 L 15.917 14.966 15.412 14.845 C 14.709 14.676,13.333 13.846,13.333 13.590 C 13.333 13.474,13.188 13.193,13.009 12.966 C 11.494 11.039,13.835 7.000,16.243 7.386 C 18.092 7.683,19.336 8.523,19.769 9.767 C 20.033 10.526,20.075 12.267,19.833 12.417 C 19.742 12.473,19.667 12.669,19.667 12.852 C 19.667 13.245,18.652 14.232,17.847 14.622 C 17.534 14.774,17.362 14.926,17.466 14.961 C 17.570 14.996,17.976 14.795,18.369 14.516 C 19.448 13.748,19.667 13.560,19.668 13.398 C 19.668 13.317,19.787 13.025,19.931 12.750 C 20.272 12.100,20.306 10.225,19.988 9.664 C 18.627 7.268,16.437 6.508,14.333 7.702 M27.873 7.521 C 26.632 8.092,25.554 9.713,25.712 10.772 C 25.778 11.214,25.786 11.206,25.813 10.667 C 25.849 9.979,26.874 8.404,27.500 8.074 C 28.888 7.344,30.161 7.087,30.409 7.487 C 30.461 7.572,30.736 7.692,31.019 7.754 C 31.531 7.867,32.511 8.706,33.051 9.495 C 33.255 9.793,33.333 10.258,33.333 11.170 L 33.333 12.433 32.485 13.386 C 31.549 14.435,31.201 14.672,30.333 14.845 L 29.750 14.962 30.391 14.981 C 31.946 15.027,33.574 13.104,33.574 11.221 C 33.574 8.307,30.502 6.313,27.873 7.521 M25.684 11.881 C 25.649 13.153,27.416 15.021,28.622 14.987 C 28.876 14.980,28.971 14.935,28.833 14.889 C 28.696 14.842,28.347 14.698,28.058 14.568 C 27.769 14.439,27.451 14.333,27.350 14.333 C 27.249 14.333,27.167 14.269,27.167 14.191 C 27.167 14.113,26.974 13.840,26.737 13.586 C 26.295 13.108,26.052 12.618,25.829 11.750 C 25.702 11.255,25.701 11.256,25.684 11.881 M342.167 13.333 C 342.029 13.422,341.542 13.497,341.083 13.500 C 340.625 13.503,340.157 13.564,340.044 13.636 C 339.811 13.784,339.669 42.933,339.898 43.625 C 339.967 43.831,340.111 44.005,340.220 44.011 C 341.416 44.080,352.402 44.074,353.917 44.004 C 355.017 43.953,352.504 43.915,348.333 43.920 C 344.162 43.924,340.653 43.898,340.535 43.860 C 340.108 43.726,339.808 42.664,340.018 42.028 C 340.147 41.639,340.166 41.053,340.078 40.264 C 340.005 39.615,339.962 38.633,339.984 38.083 C 340.005 37.533,340.050 31.882,340.084 25.525 C 340.118 19.167,340.191 13.920,340.248 13.863 C 340.304 13.807,340.815 13.700,341.384 13.625 C 341.952 13.551,342.699 13.447,343.045 13.394 C 343.390 13.341,343.765 13.373,343.878 13.465 C 344.008 13.571,347.161 13.641,352.500 13.657 C 360.858 13.682,361.637 13.716,361.872 14.067 C 362.096 14.401,362.023 18.629,361.792 18.733 C 361.677 18.785,361.733 18.809,361.917 18.787 C 362.397 18.728,362.525 14.052,362.056 13.710 C 361.837 13.549,359.938 13.495,353.926 13.480 C 349.613 13.469,345.858 13.409,345.583 13.346 C 345.308 13.282,344.909 13.306,344.696 13.398 C 344.423 13.515,344.214 13.506,343.990 13.366 C 343.608 13.127,342.516 13.108,342.167 13.333 M366.842 13.357 C 366.618 13.443,366.093 13.498,365.675 13.479 C 364.693 13.434,364.111 13.729,364.260 14.197 C 364.402 14.644,365.358 16.000,365.532 16.000 C 365.606 16.000,365.667 16.087,365.667 16.193 C 365.667 16.299,365.954 16.768,366.306 17.235 C 366.658 17.702,367.155 18.416,367.410 18.822 C 367.666 19.228,368.053 19.752,368.271 19.986 C 368.489 20.221,368.667 20.490,368.667 20.583 C 368.667 20.677,368.854 20.956,369.083 21.203 C 369.313 21.450,369.500 21.712,369.500 21.786 C 369.500 21.860,369.688 22.122,369.917 22.369 C 370.146 22.617,370.333 22.860,370.333 22.911 C 370.333 22.962,370.847 23.699,371.475 24.550 C 372.103 25.400,372.713 26.276,372.831 26.496 C 372.949 26.716,373.190 27.050,373.367 27.240 C 374.137 28.063,374.248 28.612,373.769 29.240 C 373.530 29.554,373.333 29.857,373.333 29.913 C 373.333 29.969,373.146 30.217,372.917 30.464 C 372.688 30.711,372.500 30.990,372.500 31.083 C 372.500 31.176,372.162 31.664,371.750 32.167 C 371.337 32.670,371.000 33.135,371.000 33.201 C 371.000 33.268,370.794 33.568,370.542 33.870 C 370.290 34.171,370.008 34.546,369.917 34.704 C 369.681 35.109,368.260 37.178,367.128 38.765 C 366.599 39.506,366.167 40.196,366.167 40.298 C 366.167 40.400,366.065 40.543,365.941 40.617 C 365.540 40.854,363.979 43.186,364.034 43.468 C 364.147 44.059,364.795 44.167,367.650 44.069 C 370.706 43.964,370.824 43.917,371.557 42.476 C 371.726 42.144,372.158 41.518,372.516 41.085 C 372.874 40.652,373.167 40.199,373.167 40.079 C 373.167 39.959,373.225 39.836,373.296 39.806 C 373.439 39.744,374.833 37.724,374.833 37.578 C 374.833 37.528,374.987 37.321,375.174 37.120 C 375.362 36.919,375.624 36.528,375.757 36.252 C 375.997 35.753,375.995 35.753,375.492 36.333 C 374.850 37.073,374.855 37.066,374.118 38.208 C 372.962 40.000,372.344 40.916,372.009 41.333 C 371.825 41.563,371.672 41.807,371.670 41.876 C 371.664 42.097,370.678 43.378,370.322 43.626 C 369.677 44.078,364.167 43.953,364.167 43.487 C 364.167 43.297,365.463 41.376,365.683 41.240 C 365.859 41.131,367.463 38.846,367.809 38.212 C 367.933 37.985,368.175 37.658,368.347 37.487 C 368.518 37.315,368.704 36.991,368.761 36.766 C 368.817 36.541,368.969 36.317,369.098 36.267 C 369.228 36.218,369.333 36.079,369.333 35.959 C 369.333 35.839,369.560 35.480,369.837 35.162 C 370.530 34.367,370.540 34.353,371.270 33.248 C 371.626 32.709,372.085 32.084,372.292 31.860 C 372.498 31.635,372.667 31.382,372.667 31.298 C 372.667 31.213,372.901 30.866,373.186 30.525 C 373.472 30.185,373.878 29.584,374.089 29.191 L 374.472 28.475 373.953 27.696 C 373.667 27.267,373.390 26.879,373.336 26.833 C 373.283 26.787,372.983 26.337,372.670 25.833 C 372.356 25.329,371.759 24.491,371.342 23.971 C 370.351 22.734,368.833 20.564,368.833 20.383 C 368.833 20.305,368.702 20.121,368.542 19.974 C 368.381 19.828,367.988 19.321,367.667 18.849 C 367.346 18.376,366.802 17.619,366.458 17.166 C 366.115 16.713,365.833 16.263,365.833 16.164 C 365.833 16.065,365.665 15.811,365.458 15.598 C 364.164 14.263,364.198 13.667,365.567 13.667 C 366.068 13.667,366.668 13.595,366.900 13.506 C 367.170 13.404,367.357 13.404,367.421 13.506 C 367.475 13.595,368.158 13.667,368.937 13.667 C 370.742 13.667,370.803 13.704,372.021 15.590 C 372.582 16.457,373.098 17.167,373.169 17.167 C 373.239 17.167,373.410 17.448,373.548 17.792 C 373.686 18.135,373.994 18.627,374.233 18.884 C 374.471 19.140,374.667 19.457,374.667 19.588 C 374.667 19.719,374.843 19.941,375.059 20.083 C 375.274 20.224,375.593 20.619,375.767 20.961 C 376.018 21.455,377.194 23.115,377.838 23.883 C 377.899 23.956,378.242 23.582,378.599 23.052 C 378.957 22.522,379.419 21.901,379.625 21.671 C 379.831 21.441,380.000 21.172,380.000 21.072 C 380.000 20.973,380.188 20.715,380.417 20.500 C 380.646 20.285,380.833 20.021,380.833 19.913 C 380.833 19.806,380.981 19.585,381.161 19.422 C 381.341 19.259,382.055 18.216,382.748 17.104 C 383.441 15.993,384.296 14.750,384.649 14.343 L 385.290 13.603 387.687 13.642 C 390.903 13.694,391.167 13.746,391.167 14.334 C 391.167 14.589,391.070 14.835,390.951 14.880 C 390.833 14.926,390.369 15.515,389.921 16.190 C 389.474 16.865,388.604 18.060,387.990 18.845 C 387.375 19.631,386.758 20.494,386.619 20.762 C 386.479 21.030,386.166 21.475,385.922 21.750 C 385.679 22.025,385.336 22.524,385.161 22.860 C 384.986 23.195,384.775 23.495,384.692 23.526 C 384.609 23.558,384.229 24.096,383.847 24.723 C 383.108 25.935,383.079 25.977,382.426 26.750 C 382.193 27.025,381.824 27.522,381.605 27.853 L 381.206 28.457 381.645 29.211 C 381.886 29.626,382.289 30.255,382.539 30.608 C 382.790 30.961,383.450 31.887,384.006 32.667 C 385.162 34.286,387.169 37.213,387.417 37.641 C 387.508 37.799,387.682 38.039,387.802 38.173 C 387.922 38.307,388.147 38.614,388.302 38.856 C 388.457 39.097,388.902 39.713,389.292 40.224 C 389.681 40.734,390.000 41.188,390.000 41.231 C 390.000 41.274,390.300 41.761,390.667 42.313 C 391.756 43.954,391.828 43.924,387.000 43.858 L 385.583 43.838 384.712 42.877 C 384.233 42.349,383.840 41.833,383.837 41.730 C 383.835 41.627,383.533 41.167,383.167 40.706 C 382.800 40.246,382.500 39.826,382.500 39.773 C 382.500 39.676,381.160 37.654,380.994 37.500 C 380.793 37.314,379.167 34.835,379.166 34.714 C 379.166 34.642,378.881 34.254,378.534 33.851 C 377.823 33.027,377.456 33.049,376.994 33.945 C 376.860 34.205,376.657 34.477,376.542 34.550 C 376.427 34.623,376.333 34.823,376.333 34.994 C 376.333 35.166,376.240 35.339,376.125 35.380 C 376.010 35.421,375.965 35.507,376.025 35.571 C 376.124 35.679,377.390 34.054,377.553 33.611 C 377.710 33.180,378.316 33.883,380.129 36.601 C 381.163 38.149,382.082 39.442,382.171 39.472 C 382.260 39.503,382.333 39.602,382.333 39.692 C 382.333 39.782,382.511 40.094,382.729 40.386 C 382.947 40.678,383.303 41.223,383.521 41.597 C 385.042 44.213,385.080 44.232,388.678 44.078 C 392.172 43.929,392.143 43.952,391.012 42.237 C 390.547 41.531,390.167 40.895,390.167 40.824 C 390.167 40.753,390.106 40.669,390.031 40.639 C 389.845 40.563,388.500 38.715,388.500 38.536 C 388.500 38.457,388.313 38.215,388.083 38.000 C 387.854 37.785,387.667 37.515,387.667 37.402 C 387.667 37.288,387.607 37.169,387.535 37.139 C 387.462 37.108,387.231 36.802,387.021 36.458 C 386.811 36.115,386.571 35.833,386.486 35.833 C 386.402 35.833,386.333 35.755,386.333 35.659 C 386.333 35.499,385.048 33.527,384.817 33.333 C 384.685 33.222,383.337 31.291,382.917 30.609 C 382.733 30.312,382.377 29.803,382.125 29.477 C 381.467 28.628,381.522 28.344,382.620 26.917 C 382.832 26.642,383.062 26.342,383.131 26.250 C 383.658 25.552,384.667 23.975,384.667 23.849 C 384.667 23.764,384.737 23.669,384.823 23.639 C 385.027 23.566,386.833 21.044,386.833 20.831 C 386.833 20.740,386.890 20.667,386.958 20.666 C 387.027 20.666,387.346 20.272,387.667 19.791 C 387.988 19.310,388.295 18.879,388.350 18.833 C 388.404 18.787,389.019 17.956,389.715 16.986 C 390.412 16.016,391.098 15.126,391.241 15.008 C 391.383 14.889,391.500 14.548,391.500 14.249 C 391.500 13.547,391.335 13.505,388.531 13.502 C 387.310 13.501,386.165 13.422,385.986 13.326 C 385.673 13.158,384.667 13.553,384.667 13.843 C 384.667 13.901,384.179 14.630,383.583 15.463 C 382.988 16.295,382.500 17.028,382.500 17.089 C 382.500 17.151,382.275 17.486,382.000 17.833 C 381.725 18.181,381.500 18.535,381.500 18.620 C 381.500 18.705,381.313 18.951,381.083 19.167 C 380.854 19.382,380.667 19.623,380.667 19.703 C 380.667 19.783,380.479 20.050,380.250 20.297 C 380.021 20.544,379.833 20.823,379.833 20.917 C 379.833 21.010,379.646 21.289,379.417 21.536 C 379.188 21.783,379.000 22.019,379.000 22.059 C 379.000 22.405,377.842 23.792,377.762 23.542 C 377.711 23.381,377.481 23.033,377.253 22.768 C 376.919 22.380,374.838 19.387,374.083 18.209 C 373.992 18.066,373.523 17.354,373.042 16.627 C 372.560 15.900,372.167 15.271,372.167 15.229 C 372.167 15.187,371.979 14.950,371.750 14.703 C 371.521 14.456,371.333 14.157,371.333 14.039 C 371.333 13.682,370.554 13.500,369.022 13.500 C 368.222 13.500,367.495 13.433,367.408 13.351 C 367.315 13.263,367.083 13.266,366.842 13.357 M53.583 17.404 C 52.693 17.663,51.836 18.063,51.360 18.441 C 50.190 19.369,50.000 19.543,50.000 19.688 C 50.000 19.776,49.843 20.013,49.651 20.215 C 49.459 20.418,49.233 20.733,49.149 20.917 C 48.800 21.683,47.216 24.235,45.052 27.518 C 44.290 28.674,43.667 29.673,43.667 29.738 C 43.667 29.803,43.487 30.094,43.268 30.386 C 43.049 30.678,42.727 31.179,42.553 31.500 C 42.379 31.821,41.883 32.628,41.452 33.293 C 41.020 33.959,40.667 34.538,40.667 34.580 C 40.667 34.688,39.633 36.189,39.352 36.489 C 39.226 36.624,39.036 36.926,38.932 37.159 C 38.828 37.393,38.223 38.371,37.587 39.333 C 36.951 40.296,36.293 41.335,36.123 41.642 C 35.953 41.950,35.743 42.287,35.657 42.392 C 35.331 42.787,34.327 44.260,34.220 44.500 C 34.158 44.637,33.935 45.028,33.723 45.368 C 32.988 46.547,33.223 46.642,36.873 46.640 C 38.968 46.638,39.639 46.583,39.935 46.389 C 40.265 46.173,42.000 43.805,42.000 43.571 C 42.000 43.524,42.300 43.080,42.667 42.583 C 43.033 42.087,43.333 41.578,43.333 41.453 C 43.333 41.327,43.521 41.049,43.750 40.833 C 43.979 40.618,44.167 40.352,44.167 40.241 C 44.167 40.131,44.272 39.953,44.401 39.846 C 44.530 39.739,44.759 39.411,44.908 39.117 C 45.058 38.824,45.336 38.321,45.526 38.000 L 45.871 37.417 45.501 37.750 C 45.297 37.933,44.973 38.421,44.781 38.833 C 44.589 39.246,44.349 39.658,44.248 39.750 C 43.963 40.008,43.270 41.029,43.002 41.583 C 42.869 41.858,42.568 42.346,42.333 42.667 C 42.099 42.987,41.796 43.475,41.662 43.750 C 41.527 44.025,41.316 44.329,41.193 44.425 C 41.071 44.522,40.802 44.934,40.597 45.342 L 40.224 46.083 37.029 46.129 C 33.656 46.176,33.212 46.056,34.083 45.333 C 34.221 45.219,34.333 45.016,34.333 44.881 C 34.333 44.746,34.489 44.437,34.679 44.193 C 35.489 43.157,36.500 41.659,36.500 41.495 C 36.500 41.398,36.688 41.117,36.917 40.869 C 37.146 40.622,37.333 40.375,37.333 40.320 C 37.333 40.265,37.746 39.589,38.250 38.818 C 38.754 38.048,39.167 37.355,39.167 37.280 C 39.167 37.205,39.285 37.024,39.430 36.880 C 39.640 36.669,40.801 34.960,42.077 32.982 C 42.172 32.834,42.501 32.240,42.809 31.661 C 43.116 31.082,43.472 30.504,43.600 30.376 C 43.728 30.248,43.833 30.050,43.833 29.936 C 43.833 29.823,43.965 29.581,44.125 29.401 C 44.492 28.987,45.500 27.521,45.500 27.401 C 45.500 27.351,45.688 27.065,45.917 26.765 C 46.146 26.464,46.333 26.166,46.333 26.102 C 46.333 26.038,46.633 25.580,47.000 25.083 C 47.367 24.587,47.667 24.065,47.667 23.924 C 47.667 23.782,47.734 23.667,47.816 23.667 C 47.898 23.667,48.107 23.385,48.280 23.042 C 48.453 22.698,48.967 21.853,49.422 21.165 C 49.877 20.476,50.347 19.725,50.466 19.494 C 50.682 19.077,51.890 18.297,53.000 17.858 C 53.780 17.550,57.397 17.499,57.691 17.792 C 57.806 17.906,58.129 17.995,58.408 17.989 L 58.917 17.979 58.417 17.760 C 56.991 17.134,55.010 16.989,53.583 17.404 M59.766 18.834 C 60.215 19.293,60.707 19.708,60.858 19.757 C 61.010 19.806,61.176 20.016,61.229 20.224 C 61.281 20.432,61.720 21.186,62.203 21.899 C 62.687 22.612,63.158 23.318,63.250 23.467 C 63.342 23.617,63.875 24.455,64.434 25.328 C 64.994 26.202,65.621 27.254,65.828 27.667 C 66.034 28.079,66.371 28.604,66.576 28.833 C 66.910 29.206,67.687 30.408,68.556 31.893 C 68.958 32.581,69.333 32.971,69.333 32.702 C 69.333 32.591,69.258 32.500,69.167 32.500 C 69.075 32.500,69.000 32.416,69.000 32.314 C 69.000 32.212,68.746 31.780,68.436 31.356 C 68.127 30.931,67.731 30.321,67.557 30.000 C 67.383 29.679,66.973 29.004,66.646 28.500 C 66.319 27.996,65.721 27.058,65.318 26.417 C 64.915 25.775,64.528 25.225,64.459 25.194 C 64.390 25.164,64.333 25.062,64.333 24.968 C 64.333 24.875,63.902 24.137,63.375 23.330 C 62.848 22.522,62.192 21.468,61.917 20.987 C 61.286 19.885,60.111 18.580,59.453 18.251 C 59.013 18.032,59.053 18.107,59.766 18.834 M8.369 18.669 L 8.000 19.013 8.000 29.793 C 8.000 41.536,7.950 40.847,8.968 43.000 C 9.766 44.687,11.528 46.030,13.417 46.392 C 14.607 46.620,26.680 46.720,26.896 46.504 C 26.990 46.410,27.297 46.333,27.580 46.333 C 29.082 46.333,31.084 44.649,32.750 41.983 C 33.153 41.339,33.916 40.179,34.494 39.333 C 34.839 38.829,35.637 37.592,36.269 36.583 L 37.417 34.750 37.463 26.873 C 37.494 21.541,37.452 18.889,37.332 18.665 C 37.166 18.355,36.978 18.333,34.442 18.333 L 31.730 18.333 31.537 19.125 C 31.404 19.667,31.359 21.679,31.392 25.500 C 31.448 32.013,31.336 34.188,30.920 34.603 C 30.765 34.759,30.445 35.193,30.210 35.568 C 29.976 35.943,29.738 36.287,29.683 36.333 C 29.560 36.435,28.276 38.355,28.183 38.576 C 28.146 38.663,28.054 38.813,27.977 38.909 C 26.685 40.530,26.818 40.500,20.949 40.500 C 17.954 40.500,16.148 40.438,16.083 40.333 C 16.027 40.242,15.854 40.164,15.698 40.161 C 15.543 40.158,15.267 40.023,15.083 39.862 C 14.227 39.107,14.256 39.461,14.167 28.583 L 14.083 18.417 11.411 18.371 C 8.907 18.328,8.715 18.347,8.369 18.669 M13.558 18.748 C 13.771 18.961,13.808 20.327,13.821 28.545 C 13.838 39.424,13.868 39.659,15.338 40.419 C 16.112 40.819,26.610 40.776,27.095 40.371 C 27.468 40.060,28.539 38.602,30.098 36.285 C 31.862 33.661,31.687 34.712,31.682 26.768 C 31.679 22.908,31.733 19.487,31.803 19.167 L 31.930 18.583 34.217 18.537 C 37.539 18.470,37.167 17.448,37.167 26.634 L 37.167 34.422 36.533 35.503 C 34.896 38.296,30.926 44.198,30.390 44.637 C 28.608 46.096,27.394 46.322,21.333 46.320 C 12.274 46.318,10.650 45.843,9.178 42.770 C 8.268 40.873,8.268 40.871,8.213 29.781 L 8.162 19.479 8.651 18.990 C 9.236 18.405,13.028 18.218,13.558 18.748 M345.611 18.944 C 345.446 19.110,345.476 21.201,345.643 21.098 C 345.721 21.050,345.750 20.643,345.707 20.194 C 345.638 19.481,345.677 19.345,346.018 19.106 C 346.389 18.846,346.392 18.833,346.065 18.833 C 345.876 18.833,345.672 18.883,345.611 18.944 M95.156 20.011 C 94.815 20.352,94.812 20.440,94.866 29.969 L 94.921 39.583 95.414 40.500 C 96.306 42.159,97.814 43.326,99.623 43.759 C 100.821 44.045,108.457 44.091,109.635 43.819 C 111.726 43.336,113.154 42.408,113.803 41.108 C 114.014 40.686,114.257 40.297,114.343 40.244 C 114.429 40.191,114.500 39.931,114.500 39.667 C 114.500 39.402,114.575 39.140,114.667 39.083 C 114.775 39.017,114.833 35.671,114.833 29.593 L 114.833 20.205 114.399 19.920 C 113.854 19.564,111.056 19.607,110.609 19.979 C 110.359 20.186,110.333 21.030,110.333 29.011 C 110.333 34.700,110.274 37.850,110.167 37.917 C 110.075 37.973,109.998 38.184,109.996 38.385 C 109.994 38.617,109.757 38.917,109.345 39.208 L 108.697 39.667 104.862 39.667 C 101.054 39.667,100.006 39.517,100.001 38.970 C 100.000 38.908,99.869 38.726,99.708 38.566 C 99.439 38.297,99.413 37.584,99.365 29.308 L 99.312 20.341 98.884 20.004 C 98.246 19.502,95.659 19.507,95.156 20.011 M145.875 19.839 L 145.500 19.989 145.499 30.036 C 145.498 41.223,145.477 40.996,146.638 42.352 C 147.500 43.360,148.305 43.678,150.261 43.786 C 152.620 43.916,152.667 43.881,152.667 42.005 C 152.667 39.802,152.585 39.667,151.256 39.667 L 150.171 39.667 149.919 39.063 C 149.704 38.549,149.667 37.103,149.667 29.322 L 149.667 20.186 149.296 19.926 C 148.881 19.635,146.531 19.575,145.875 19.839 M212.371 19.881 C 211.767 20.110,211.015 20.927,211.006 21.366 C 211.003 21.522,210.813 22.002,210.583 22.433 C 210.354 22.864,210.167 23.319,210.167 23.444 C 210.167 23.569,210.095 23.801,210.007 23.961 C 209.633 24.641,208.833 26.542,208.833 26.752 C 208.833 26.877,208.758 27.027,208.667 27.083 C 208.575 27.140,208.500 27.289,208.500 27.415 C 208.500 27.541,208.275 28.130,208.000 28.724 C 207.725 29.318,207.500 29.891,207.500 29.998 C 207.500 30.105,207.237 30.738,206.917 31.406 C 206.596 32.073,206.333 32.698,206.333 32.796 C 206.333 32.893,206.226 33.185,206.094 33.445 C 205.682 34.256,205.000 35.836,205.000 35.979 C 205.000 36.114,204.624 36.980,204.323 37.539 C 204.237 37.699,204.167 37.975,204.167 38.155 C 204.167 38.334,204.103 38.520,204.025 38.568 C 203.947 38.616,203.751 39.014,203.590 39.453 C 203.300 40.243,202.976 40.999,202.333 42.386 C 201.728 43.693,201.937 43.833,204.489 43.833 C 206.466 43.833,207.000 43.623,207.000 42.843 C 207.000 42.665,207.065 42.479,207.145 42.430 C 207.225 42.381,207.336 42.114,207.391 41.838 C 207.446 41.561,207.626 41.054,207.791 40.709 C 207.955 40.365,208.235 39.652,208.413 39.125 L 208.736 38.167 213.669 38.167 L 218.603 38.167 218.885 38.806 C 219.040 39.158,219.167 39.534,219.167 39.642 C 219.167 39.750,219.238 39.968,219.325 40.127 C 219.541 40.521,219.901 41.415,220.248 42.417 C 220.723 43.792,222.272 44.237,224.813 43.729 C 225.322 43.627,225.642 42.667,225.167 42.667 C 225.075 42.667,225.000 42.509,225.000 42.317 C 225.000 42.125,224.877 41.732,224.726 41.442 C 224.238 40.504,224.167 40.341,224.167 40.152 C 224.167 39.963,224.037 39.644,223.270 37.954 C 223.030 37.424,222.833 36.924,222.833 36.842 C 222.833 36.761,222.728 36.481,222.599 36.222 C 222.470 35.962,222.291 35.563,222.202 35.333 C 221.591 33.764,221.429 33.358,221.227 32.891 C 221.102 32.603,221.000 32.284,221.000 32.183 C 221.000 32.082,220.925 32.000,220.833 32.000 C 220.742 32.000,220.667 31.856,220.667 31.680 C 220.667 31.504,220.541 31.111,220.388 30.805 C 219.898 29.827,219.833 29.674,219.833 29.501 C 219.833 29.408,219.646 28.943,219.417 28.468 C 219.188 27.993,219.000 27.512,219.000 27.399 C 219.000 27.286,218.892 26.981,218.760 26.722 C 218.366 25.945,218.000 25.045,218.000 24.850 C 218.000 24.749,217.925 24.667,217.833 24.667 C 217.742 24.667,217.667 24.519,217.667 24.338 C 217.667 24.021,217.350 23.244,216.332 21.061 C 215.894 20.122,215.804 20.031,215.220 19.935 C 213.799 19.702,212.889 19.684,212.371 19.881 M238.375 19.839 C 238.002 19.988,238.000 20.011,238.000 23.598 C 238.000 26.459,237.957 27.175,237.792 27.048 C 236.569 26.115,230.130 26.182,228.500 27.146 C 227.903 27.498,226.500 28.868,226.500 29.098 C 226.500 29.205,226.387 29.386,226.250 29.500 C 226.112 29.614,226.000 29.917,226.000 30.173 C 226.000 30.429,225.906 30.670,225.792 30.708 C 225.632 30.762,225.583 31.797,225.583 35.131 C 225.583 38.391,225.636 39.536,225.792 39.692 C 225.906 39.806,226.000 40.038,226.000 40.206 C 226.000 41.048,228.123 43.333,228.905 43.333 C 229.038 43.333,229.187 43.397,229.235 43.476 C 229.454 43.831,231.827 44.028,234.750 43.935 C 236.400 43.882,237.975 43.832,238.250 43.823 C 238.525 43.815,239.155 43.814,239.649 43.821 C 240.750 43.837,241.881 43.055,242.061 42.153 C 242.119 41.863,242.167 36.801,242.167 30.905 L 242.167 20.186 241.796 19.926 C 241.381 19.635,239.031 19.575,238.375 19.839 M98.865 20.208 C 98.883 20.231,98.939 24.262,98.990 29.167 C 99.113 40.886,98.585 39.917,104.846 39.917 L 108.943 39.917 109.513 39.481 C 110.655 38.611,110.668 38.483,110.667 28.786 L 110.667 20.156 112.542 20.203 L 114.417 20.250 114.467 29.250 C 114.519 38.446,114.473 39.336,113.873 40.537 C 113.513 41.258,112.228 42.516,111.500 42.857 C 111.179 43.008,110.699 43.233,110.433 43.357 C 109.607 43.743,99.986 43.679,99.000 43.280 C 97.358 42.617,96.403 41.764,95.700 40.333 L 95.250 39.417 95.204 29.792 L 95.159 20.167 96.996 20.167 C 98.007 20.167,98.848 20.185,98.865 20.208 M149.333 29.340 C 149.333 40.455,149.237 39.991,151.542 39.998 L 152.333 40.000 152.333 41.750 L 152.333 43.500 150.747 43.500 C 148.185 43.500,146.390 42.441,146.071 40.742 C 146.011 40.423,145.896 40.122,145.814 40.072 C 145.731 40.020,145.667 35.654,145.667 30.073 L 145.667 20.167 147.500 20.167 L 149.333 20.167 149.333 29.340 M215.793 20.625 C 215.966 20.877,216.208 21.346,216.329 21.667 C 216.451 21.988,216.648 22.475,216.767 22.750 C 216.886 23.025,217.219 23.850,217.507 24.583 C 217.794 25.317,218.082 25.992,218.146 26.083 C 218.211 26.175,218.363 26.550,218.485 26.917 C 218.606 27.283,218.922 28.057,219.186 28.637 C 219.450 29.216,219.667 29.761,219.667 29.847 C 219.667 29.934,219.735 30.135,219.818 30.294 C 219.901 30.453,220.214 31.183,220.513 31.917 C 220.812 32.650,221.119 33.321,221.195 33.408 C 221.271 33.495,221.333 33.690,221.333 33.841 C 221.333 34.093,221.624 34.822,222.011 35.539 C 222.096 35.699,222.167 35.903,222.167 35.993 C 222.167 36.084,222.346 36.553,222.566 37.037 C 223.628 39.379,224.993 42.889,224.998 43.292 C 224.999 43.447,224.496 43.500,223.028 43.500 L 221.056 43.500 220.844 43.042 C 220.351 41.977,220.172 41.543,219.935 40.833 C 219.444 39.366,219.016 38.304,218.823 38.070 C 218.661 37.875,217.748 37.833,213.650 37.833 L 208.675 37.833 208.358 38.542 C 208.184 38.931,207.719 40.112,207.324 41.167 C 206.376 43.697,206.630 43.500,204.313 43.500 C 202.104 43.500,202.164 43.547,202.750 42.266 C 202.979 41.765,203.167 41.315,203.167 41.266 C 203.167 41.217,203.358 40.743,203.593 40.213 C 204.170 38.908,204.266 38.676,204.509 38.000 C 204.625 37.679,204.862 37.079,205.035 36.667 C 205.209 36.254,205.415 35.767,205.492 35.583 C 205.569 35.400,205.827 34.817,206.066 34.287 C 206.305 33.758,206.500 33.261,206.500 33.183 C 206.500 33.106,206.800 32.366,207.167 31.540 C 207.533 30.714,207.833 29.932,207.833 29.802 C 207.833 29.673,207.898 29.495,207.976 29.408 C 208.055 29.321,208.359 28.650,208.652 27.917 C 208.945 27.183,209.248 26.433,209.325 26.250 C 209.403 26.067,209.590 25.617,209.741 25.250 C 209.892 24.883,210.088 24.453,210.175 24.294 C 210.262 24.135,210.333 23.931,210.333 23.840 C 210.333 23.750,210.511 23.280,210.728 22.796 C 210.945 22.312,211.258 21.594,211.423 21.200 C 211.825 20.245,211.985 20.178,213.864 20.172 C 215.439 20.167,215.485 20.178,215.793 20.625 M241.920 20.542 C 242.168 21.537,241.919 42.080,241.655 42.452 C 240.848 43.592,240.966 43.571,235.246 43.578 C 231.146 43.582,229.951 43.535,229.568 43.352 C 229.301 43.224,228.835 42.999,228.531 42.852 C 227.938 42.563,226.667 41.304,226.667 41.004 C 226.667 40.904,226.560 40.655,226.429 40.452 C 225.575 39.129,225.603 31.469,226.467 29.750 C 227.200 28.291,228.563 27.224,230.167 26.853 C 231.867 26.460,236.568 26.741,237.603 27.298 C 238.152 27.593,238.167 27.498,238.167 23.722 L 238.167 20.167 239.997 20.167 C 241.756 20.167,241.831 20.181,241.920 20.542 M192.820 21.599 C 192.660 21.793,192.597 22.550,192.592 24.389 L 192.583 26.913 191.917 27.276 C 191.550 27.476,191.085 27.646,190.884 27.653 C 189.987 27.686,189.289 28.969,189.566 30.074 C 189.671 30.490,189.707 30.500,191.128 30.500 L 192.583 30.501 192.583 35.242 C 192.583 38.813,192.635 40.035,192.792 40.192 C 192.906 40.306,193.000 40.498,193.000 40.617 C 193.000 41.052,193.936 42.322,194.593 42.780 C 195.945 43.723,195.961 43.727,198.602 43.802 C 201.692 43.889,201.667 43.906,201.667 41.655 C 201.667 39.734,201.592 39.668,199.404 39.661 C 196.814 39.653,196.756 39.532,196.901 34.501 C 197.029 30.069,196.775 30.500,199.257 30.500 C 201.635 30.500,201.550 30.568,201.548 28.667 C 201.546 26.410,201.439 26.338,198.053 26.335 C 196.803 26.333,196.830 26.389,196.864 23.917 C 196.900 21.320,196.911 21.333,194.765 21.333 C 193.390 21.333,192.996 21.387,192.820 21.599 M283.444 21.444 C 283.383 21.506,283.331 22.612,283.328 23.903 C 283.322 26.763,283.281 26.828,281.211 27.249 C 280.354 27.423,279.974 28.108,280.034 29.370 L 280.083 30.417 281.607 30.464 C 283.491 30.523,283.328 30.020,283.331 35.801 C 283.334 41.389,283.623 42.197,286.064 43.426 C 286.731 43.762,291.020 43.960,291.714 43.687 L 292.178 43.504 292.130 41.627 L 292.083 39.750 290.133 39.703 C 287.347 39.636,287.500 39.929,287.500 34.644 L 287.500 30.500 289.633 30.500 C 292.259 30.500,292.167 30.577,292.167 28.393 C 292.167 26.398,292.190 26.427,290.583 26.396 C 289.942 26.384,288.985 26.364,288.458 26.353 L 287.500 26.333 287.500 24.033 C 287.500 22.467,287.436 21.670,287.300 21.533 C 287.086 21.320,283.649 21.240,283.444 21.444 M196.500 24.000 C 196.606 26.851,196.446 26.666,198.802 26.669 C 201.271 26.672,201.191 26.614,201.206 28.451 C 201.221 30.431,201.341 30.333,198.917 30.333 C 197.761 30.333,196.809 30.405,196.753 30.495 C 196.698 30.584,196.611 32.366,196.560 34.454 C 196.431 39.749,196.478 39.844,199.301 39.966 C 200.346 40.012,201.134 40.121,201.206 40.230 C 201.354 40.455,201.375 42.865,201.232 43.236 C 201.044 43.727,196.624 43.604,195.667 43.081 C 195.254 42.856,194.767 42.590,194.583 42.491 C 193.332 41.811,192.963 40.183,192.846 34.833 L 192.750 30.417 191.292 30.369 L 189.833 30.320 189.833 29.506 C 189.833 28.618,190.252 28.105,191.152 27.889 C 191.389 27.833,191.865 27.645,192.208 27.473 L 192.833 27.160 192.833 24.511 C 192.833 21.439,192.664 21.676,194.833 21.719 L 196.417 21.750 196.500 24.000 M286.903 21.768 C 287.125 21.853,287.167 22.217,287.167 24.068 C 287.167 26.789,287.058 26.667,289.461 26.667 C 291.976 26.667,292.000 26.682,292.000 28.321 C 292.000 30.268,291.932 30.320,289.333 30.373 L 287.250 30.417 287.250 34.750 L 287.250 39.084 287.653 39.487 C 288.020 39.853,288.235 39.899,289.987 39.987 L 291.917 40.083 291.966 41.416 C 292.048 43.635,292.203 43.500,289.570 43.500 C 286.925 43.500,286.047 43.280,285.032 42.363 C 283.587 41.058,283.590 41.075,283.531 35.375 L 283.478 30.333 282.084 30.333 C 280.437 30.333,280.077 30.119,280.222 29.225 C 280.393 28.172,280.701 27.765,281.501 27.536 C 281.913 27.418,282.512 27.193,282.833 27.036 L 283.417 26.750 283.463 24.428 C 283.491 23.063,283.585 22.015,283.692 21.886 C 283.881 21.658,286.377 21.566,286.903 21.768 M345.534 24.119 C 345.505 25.597,345.538 25.840,345.792 25.960 C 345.952 26.036,349.383 26.121,353.417 26.149 C 359.398 26.191,360.798 26.243,361.012 26.433 C 361.298 26.686,361.322 30.744,361.040 31.027 C 360.965 31.102,357.456 31.183,353.243 31.207 L 345.583 31.250 345.562 32.417 C 345.541 33.557,345.543 33.563,345.647 32.667 C 345.706 32.162,345.807 31.667,345.872 31.565 C 345.956 31.435,348.224 31.376,353.583 31.364 C 357.759 31.355,361.249 31.302,361.338 31.247 C 361.687 31.031,361.535 26.535,361.167 26.167 C 360.828 25.828,358.734 25.765,347.467 25.752 C 345.687 25.750,345.694 25.756,345.625 23.915 L 345.569 22.417 345.534 24.119 M54.526 23.744 C 54.136 23.963,53.500 24.854,53.500 25.182 C 53.500 25.277,53.313 25.601,53.083 25.902 C 52.854 26.202,52.667 26.512,52.667 26.591 C 52.667 26.912,53.366 25.939,53.600 25.292 C 53.658 25.131,53.772 25.000,53.853 25.000 C 53.934 25.000,54.000 24.893,54.000 24.762 C 54.000 23.466,57.278 23.760,57.328 25.061 C 57.331 25.140,57.596 25.563,57.917 26.000 C 58.237 26.437,58.500 26.873,58.500 26.969 C 58.500 27.065,58.594 27.244,58.708 27.367 C 59.067 27.752,60.333 29.683,60.333 29.846 C 60.333 29.930,60.408 30.000,60.500 30.000 C 60.592 30.000,60.667 30.100,60.667 30.222 C 60.667 30.345,60.951 30.851,61.299 31.347 C 61.646 31.844,62.098 32.596,62.303 33.020 C 62.508 33.443,62.823 33.923,63.004 34.087 C 63.185 34.251,63.333 34.456,63.333 34.542 C 63.333 34.628,63.502 34.934,63.708 35.221 C 64.119 35.793,64.422 36.281,64.606 36.667 C 64.672 36.804,64.956 37.217,65.238 37.583 C 65.889 38.431,66.151 38.842,66.274 39.208 C 66.328 39.369,66.430 39.500,66.501 39.500 C 66.572 39.500,66.678 39.688,66.735 39.917 C 66.793 40.146,66.913 40.333,67.003 40.333 C 67.093 40.333,67.167 40.405,67.167 40.493 C 67.167 40.632,68.236 42.277,68.642 42.763 C 68.725 42.862,68.844 43.105,68.908 43.304 C 68.971 43.504,69.092 43.667,69.178 43.667 C 69.263 43.667,69.333 43.741,69.333 43.831 C 69.333 44.197,70.784 46.152,71.250 46.413 C 71.675 46.652,72.167 46.685,74.548 46.638 C 77.991 46.571,78.143 46.455,77.017 44.765 C 76.779 44.407,76.471 43.944,76.333 43.738 C 75.698 42.782,73.041 38.564,72.684 37.944 C 72.464 37.562,72.220 37.225,72.142 37.194 C 72.064 37.164,72.000 37.038,72.000 36.916 C 72.000 36.793,71.827 36.480,71.615 36.221 C 71.403 35.962,70.904 35.226,70.504 34.586 C 69.759 33.389,69.333 32.860,69.333 33.129 C 69.333 33.316,70.701 35.395,70.875 35.472 C 70.944 35.503,71.000 35.631,71.000 35.757 C 71.000 35.884,71.160 36.136,71.355 36.318 C 71.725 36.662,71.823 36.813,72.478 38.050 C 72.696 38.460,73.052 39.003,73.270 39.257 C 73.488 39.511,73.667 39.785,73.667 39.866 C 73.667 39.947,73.807 40.217,73.979 40.465 C 75.967 43.341,77.333 45.599,77.333 46.008 C 77.333 46.103,76.096 46.167,74.257 46.167 L 71.181 46.167 70.579 45.292 C 70.248 44.810,69.513 43.698,68.947 42.820 C 68.380 41.941,67.785 41.092,67.625 40.933 C 67.465 40.773,67.333 40.536,67.333 40.405 C 67.333 40.274,67.263 40.167,67.178 40.167 C 67.092 40.167,66.972 40.009,66.911 39.817 C 66.808 39.491,65.538 37.353,65.337 37.167 C 65.154 36.997,64.333 35.669,64.333 35.544 C 64.333 35.472,64.146 35.211,63.917 34.964 C 63.688 34.717,63.500 34.469,63.500 34.413 C 63.500 34.357,63.313 34.065,63.083 33.765 C 62.854 33.464,62.667 33.159,62.667 33.086 C 62.667 32.924,61.333 30.784,61.160 30.667 C 61.092 30.621,60.862 30.246,60.649 29.833 C 60.316 29.190,59.571 28.084,58.998 27.382 C 58.907 27.271,58.833 27.098,58.833 26.996 C 58.833 26.814,58.105 25.744,57.760 25.417 C 57.663 25.325,57.452 24.967,57.293 24.621 C 57.133 24.275,56.833 23.929,56.626 23.850 C 55.887 23.571,54.921 23.522,54.526 23.744 M213.523 25.592 C 213.327 25.841,213.167 26.170,213.167 26.322 C 213.167 26.475,213.101 26.671,213.021 26.758 C 212.940 26.845,212.719 27.341,212.529 27.860 C 212.339 28.378,212.040 29.128,211.864 29.526 C 211.689 29.924,211.414 30.587,211.253 31.000 C 211.092 31.412,210.900 31.900,210.826 32.083 C 210.354 33.260,210.146 33.998,210.242 34.154 C 210.382 34.381,217.103 34.404,217.243 34.178 C 217.346 34.011,217.273 33.800,215.896 30.316 C 215.403 29.070,215.000 27.977,215.000 27.889 C 215.000 27.801,214.813 27.340,214.583 26.865 C 214.354 26.390,214.166 25.908,214.164 25.792 C 214.157 25.229,213.877 25.141,213.523 25.592 M214.583 27.750 C 214.743 28.208,214.969 28.808,215.086 29.083 C 215.202 29.358,215.392 29.846,215.507 30.167 C 215.782 30.932,216.386 32.384,216.835 33.359 C 217.187 34.122,217.023 34.167,213.865 34.164 C 210.720 34.161,210.276 34.071,210.625 33.507 C 210.740 33.322,210.833 33.057,210.833 32.917 C 210.833 32.777,210.905 32.532,210.992 32.373 C 211.079 32.214,211.267 31.802,211.409 31.458 C 211.551 31.115,211.779 30.578,211.917 30.266 C 212.054 29.955,212.167 29.580,212.167 29.433 C 212.167 29.287,212.242 29.167,212.333 29.167 C 212.425 29.167,212.500 29.023,212.500 28.847 C 212.500 28.671,212.625 28.277,212.778 27.972 C 213.275 26.980,213.333 26.841,213.333 26.640 C 213.333 26.532,213.459 26.304,213.612 26.135 C 213.922 25.792,213.867 25.701,214.583 27.750 M122.617 26.439 C 122.559 26.496,122.123 26.535,121.648 26.524 C 119.933 26.486,118.065 27.397,117.635 28.481 C 117.306 29.312,117.458 43.373,117.799 43.638 C 118.113 43.883,121.366 43.856,121.615 43.607 C 121.689 43.533,121.772 40.687,121.799 37.282 C 121.843 31.875,121.883 31.055,122.117 30.796 C 122.602 30.260,126.937 30.361,127.543 30.923 L 128.000 31.347 128.000 37.428 L 128.000 43.508 128.428 43.671 C 128.907 43.853,131.359 43.862,132.000 43.684 L 132.417 43.568 132.500 37.076 L 132.583 30.583 135.000 30.536 C 138.885 30.461,138.667 30.038,138.667 37.645 C 138.667 43.251,138.680 43.495,138.989 43.661 C 139.382 43.871,142.325 43.886,142.651 43.680 C 142.888 43.530,142.955 31.233,142.725 30.167 C 142.475 29.007,141.421 27.649,140.333 27.087 C 140.012 26.921,139.600 26.705,139.417 26.607 C 138.395 26.058,132.794 26.333,131.417 27.000 C 130.603 27.394,130.366 27.411,130.013 27.103 C 129.335 26.509,123.106 25.950,122.617 26.439 M155.250 26.444 C 154.640 26.598,154.500 26.996,154.500 28.582 C 154.500 30.648,154.117 30.500,159.476 30.500 L 164.052 30.500 164.609 30.925 C 165.094 31.295,165.167 31.447,165.167 32.092 L 165.167 32.833 161.446 32.833 C 157.606 32.833,156.856 32.935,155.590 33.625 C 152.261 35.439,152.515 41.515,156.000 43.421 C 156.814 43.867,168.781 44.028,169.210 43.599 C 169.490 43.320,169.518 31.142,169.241 30.083 C 168.969 29.044,167.711 27.514,166.805 27.121 C 166.500 26.988,166.025 26.777,165.750 26.651 C 165.251 26.422,156.060 26.241,155.250 26.444 M172.370 26.498 L 171.989 26.660 172.036 33.372 L 172.083 40.083 172.534 40.956 C 173.269 42.382,174.707 43.442,176.333 43.758 C 177.740 44.031,182.396 44.024,183.500 43.746 C 184.096 43.596,184.747 43.434,184.946 43.386 C 185.948 43.145,187.470 41.242,187.911 39.678 C 188.253 38.468,188.295 26.766,187.958 26.557 C 187.623 26.348,184.626 26.287,184.131 26.479 L 183.678 26.654 183.631 32.810 C 183.572 40.452,183.978 39.667,180.087 39.667 C 176.974 39.667,176.500 39.518,176.500 38.541 C 176.500 38.346,176.425 38.140,176.333 38.083 C 176.228 38.018,176.167 35.918,176.167 32.333 C 176.167 27.996,176.118 26.656,175.958 26.557 C 175.640 26.361,172.801 26.313,172.370 26.498 M245.982 26.437 C 245.544 26.565,245.333 27.269,245.333 28.602 C 245.333 30.646,244.966 30.500,250.097 30.500 C 255.370 30.500,256.000 30.695,256.000 32.327 L 256.000 32.833 252.306 32.833 C 248.697 32.833,246.904 33.059,246.694 33.539 C 246.664 33.609,246.540 33.667,246.420 33.667 C 245.927 33.667,244.556 35.447,244.344 36.361 C 243.429 40.306,244.848 43.059,248.167 43.780 C 249.201 44.005,259.753 43.814,260.001 43.566 C 260.297 43.269,260.155 30.211,259.849 29.667 C 259.720 29.438,259.551 29.137,259.473 29.000 C 259.395 28.863,259.280 28.639,259.217 28.504 C 258.966 27.965,257.371 26.833,256.863 26.833 C 256.700 26.833,256.473 26.740,256.359 26.625 C 256.153 26.419,246.635 26.247,245.982 26.437 M267.250 26.454 C 266.975 26.494,266.679 26.595,266.592 26.679 C 266.505 26.764,266.297 26.833,266.130 26.833 C 265.380 26.833,263.743 28.233,263.108 29.417 C 262.753 30.077,262.750 30.175,262.750 40.000 L 262.750 49.917 264.417 50.000 C 267.006 50.129,266.833 50.377,266.833 46.537 C 266.833 43.525,266.854 43.301,267.125 43.386 C 268.808 43.914,269.407 43.996,271.583 43.991 C 273.701 43.986,275.281 43.774,275.603 43.453 C 275.669 43.387,275.827 43.333,275.956 43.333 C 276.887 43.333,278.453 41.492,279.073 39.667 C 279.377 38.774,279.438 32.239,279.154 31.007 C 278.668 28.899,277.197 27.366,275.000 26.677 C 273.954 26.349,268.989 26.207,267.250 26.454 M295.042 26.444 C 294.554 26.547,294.475 26.919,294.534 28.833 L 294.583 30.417 299.155 30.461 L 303.726 30.505 304.280 30.928 C 304.761 31.295,304.833 31.448,304.833 32.092 L 304.833 32.833 301.208 32.835 C 296.021 32.838,294.576 33.388,293.489 35.773 C 293.071 36.692,293.051 40.989,293.464 41.127 C 293.575 41.164,293.667 41.297,293.667 41.423 C 293.667 41.755,295.298 43.333,295.641 43.333 C 295.802 43.333,296.027 43.427,296.141 43.542 C 296.422 43.823,308.316 43.943,308.827 43.670 C 309.508 43.306,309.295 30.820,308.581 29.250 C 308.112 28.219,306.978 27.223,305.667 26.689 C 305.090 26.455,295.982 26.244,295.042 26.444 M317.482 26.407 C 317.442 26.447,316.628 26.560,315.673 26.658 C 313.887 26.841,313.478 27.000,312.638 27.838 C 311.679 28.794,311.667 28.903,311.667 36.583 L 311.667 43.625 312.188 43.729 C 312.974 43.886,315.384 43.849,315.658 43.676 C 315.862 43.547,315.893 42.721,315.856 38.377 C 315.810 32.897,315.963 31.048,316.478 30.892 C 316.627 30.846,316.880 30.739,317.039 30.655 C 317.199 30.570,318.269 30.500,319.419 30.500 C 321.908 30.500,321.852 30.554,321.710 28.275 C 321.592 26.392,321.517 26.333,319.241 26.333 C 318.314 26.333,317.523 26.366,317.482 26.407 M328.417 26.514 C 327.775 26.585,326.751 26.680,326.141 26.726 C 324.669 26.836,323.713 27.421,323.042 28.623 C 322.692 29.248,322.745 43.597,323.097 43.732 C 323.537 43.901,326.333 43.845,326.678 43.661 C 326.987 43.495,327.000 43.246,327.005 37.452 C 327.011 31.168,327.047 30.833,327.717 30.833 C 327.862 30.833,328.027 30.758,328.083 30.667 C 328.143 30.570,329.046 30.500,330.227 30.500 C 332.747 30.500,332.667 30.570,332.667 28.389 C 332.667 26.169,332.445 26.071,328.417 26.514 M128.488 26.853 C 129.206 27.078,129.991 27.431,130.340 27.684 C 130.541 27.830,130.736 27.776,131.238 27.435 C 131.591 27.196,132.052 27.000,132.263 27.000 C 132.474 27.000,132.693 26.925,132.750 26.833 C 132.933 26.537,138.388 26.623,139.349 26.938 C 140.385 27.277,141.774 28.500,142.170 29.423 C 142.424 30.018,142.699 40.792,142.521 43.208 C 142.491 43.626,139.094 43.652,138.934 43.236 C 138.879 43.091,138.833 40.360,138.833 37.166 L 138.833 31.359 138.321 30.846 L 137.808 30.333 135.187 30.333 C 133.371 30.333,132.505 30.395,132.367 30.533 C 132.218 30.682,132.167 32.375,132.167 37.122 L 132.167 43.511 130.292 43.464 L 128.417 43.417 128.333 37.305 L 128.250 31.193 127.846 30.763 C 127.326 30.210,122.251 30.080,121.812 30.609 C 121.631 30.827,121.566 32.179,121.500 37.150 L 121.417 43.417 119.625 43.464 L 117.833 43.511 117.833 36.073 C 117.833 28.802,117.841 28.624,118.181 28.147 C 118.747 27.352,119.708 26.965,121.189 26.934 C 121.900 26.919,122.536 26.853,122.602 26.787 C 122.797 26.592,127.836 26.649,128.488 26.853 M165.322 26.855 C 167.168 27.440,168.036 28.151,168.727 29.646 C 169.069 30.385,169.085 30.683,169.132 36.958 L 169.181 43.500 163.016 43.500 L 156.851 43.500 156.053 43.076 C 152.809 41.351,152.705 35.182,155.897 33.764 C 156.886 33.325,157.267 33.283,161.250 33.184 L 165.250 33.083 165.300 32.125 C 165.345 31.265,165.304 31.123,164.901 30.750 L 164.451 30.333 159.815 30.333 C 154.435 30.333,154.833 30.485,154.833 28.440 C 154.833 26.559,154.518 26.667,160.042 26.667 C 163.065 26.667,164.937 26.734,165.322 26.855 M175.800 26.867 C 175.948 27.014,176.000 28.561,176.000 32.792 C 176.000 40.392,175.799 40.060,180.337 39.970 C 182.987 39.917,182.994 39.916,183.455 39.455 L 183.917 38.993 183.960 33.205 C 184.015 25.866,183.775 26.645,185.963 26.703 L 187.750 26.750 187.801 32.583 C 187.866 40.070,187.772 40.573,185.991 42.225 C 184.652 43.467,184.140 43.583,180.000 43.583 C 174.786 43.583,173.340 42.864,172.462 39.833 C 172.237 39.057,172.112 28.511,172.308 26.875 C 172.343 26.590,175.516 26.582,175.800 26.867 M256.155 26.852 C 258.135 27.469,258.974 28.231,259.616 30.000 C 259.774 30.434,259.829 32.239,259.831 37.042 L 259.833 43.500 254.875 43.542 C 247.197 43.606,247.003 43.578,245.650 42.184 C 244.115 40.604,244.094 36.048,245.613 34.652 C 247.037 33.344,247.831 33.167,252.249 33.167 C 254.114 33.167,255.758 33.121,255.903 33.066 C 256.411 32.871,256.251 31.483,255.649 30.868 L 255.132 30.339 250.524 30.294 L 245.917 30.250 245.867 28.833 C 245.840 28.054,245.861 27.248,245.912 27.042 L 246.006 26.667 250.783 26.667 C 253.820 26.667,255.776 26.734,256.155 26.852 M274.623 26.853 C 275.059 26.955,275.529 27.106,275.667 27.187 C 275.804 27.268,276.077 27.404,276.273 27.489 C 278.307 28.374,279.167 30.980,279.167 36.263 C 279.167 39.833,277.449 43.167,275.611 43.167 C 275.495 43.167,275.306 43.260,275.192 43.375 C 274.828 43.739,268.986 43.659,267.782 43.273 C 266.546 42.877,266.633 42.651,266.642 46.225 C 266.651 49.897,266.768 49.697,264.642 49.631 L 263.083 49.583 263.040 40.005 C 263.003 31.750,263.032 30.353,263.249 29.896 C 263.387 29.605,263.500 29.300,263.500 29.219 C 263.500 29.009,265.004 27.579,265.483 27.334 C 266.706 26.706,272.661 26.393,274.623 26.853 M305.155 26.855 C 306.574 27.303,307.749 28.233,308.389 29.417 C 308.739 30.063,308.751 30.284,308.805 36.792 L 308.860 43.500 302.690 43.500 C 298.756 43.500,296.482 43.440,296.417 43.333 C 296.360 43.242,296.204 43.167,296.070 43.167 C 295.656 43.167,294.536 42.368,294.268 41.880 C 293.475 40.443,293.441 40.291,293.460 38.306 C 293.500 34.103,294.649 33.313,300.877 33.205 C 305.383 33.126,305.286 33.160,305.073 31.741 C 304.868 30.373,304.765 30.346,299.478 30.294 L 294.917 30.250 294.833 28.678 C 294.771 27.506,294.806 27.050,294.970 26.886 C 295.261 26.597,304.249 26.569,305.155 26.855 M321.224 27.625 C 321.272 28.152,321.362 28.866,321.424 29.211 C 321.610 30.243,321.423 30.333,319.116 30.333 C 315.481 30.333,315.667 29.956,315.667 37.345 C 315.667 44.175,315.879 43.500,313.732 43.500 L 312.000 43.500 311.984 42.292 C 311.786 27.702,311.952 27.006,315.631 26.997 C 316.246 26.996,316.862 26.922,317.000 26.833 C 317.137 26.744,318.125 26.671,319.194 26.669 L 321.137 26.667 321.224 27.625 M332.250 28.500 L 332.250 30.250 330.000 30.338 C 326.416 30.477,326.667 29.933,326.667 37.575 L 326.667 43.500 324.833 43.500 L 323.000 43.500 323.000 36.520 C 323.000 29.150,323.031 28.815,323.798 27.952 C 324.290 27.398,325.479 27.000,326.646 26.997 C 327.253 26.996,327.862 26.921,328.000 26.831 C 328.139 26.739,329.138 26.685,330.250 26.708 L 332.250 26.750 332.250 28.500 M52.375 26.944 C 52.260 26.990,52.167 27.165,52.167 27.333 C 52.167 27.501,52.107 27.664,52.035 27.694 C 51.862 27.767,51.026 28.879,50.685 29.490 C 50.312 30.157,49.451 31.657,49.250 31.987 C 49.158 32.138,48.915 32.442,48.708 32.662 C 48.271 33.129,48.169 33.677,48.583 33.333 C 48.721 33.219,48.833 33.057,48.833 32.972 C 48.833 32.888,49.133 32.422,49.500 31.936 C 49.867 31.450,50.167 30.963,50.167 30.853 C 50.167 30.743,50.321 30.488,50.509 30.286 C 50.697 30.084,51.015 29.581,51.217 29.168 C 51.418 28.755,51.718 28.268,51.882 28.086 C 52.122 27.821,52.726 26.795,52.612 26.846 C 52.596 26.854,52.490 26.897,52.375 26.944 M230.519 30.794 C 229.676 31.498,229.505 32.222,229.503 35.117 C 229.501 36.511,229.570 37.823,229.655 38.034 C 229.740 38.244,229.853 38.616,229.904 38.860 C 230.098 39.769,231.027 40.000,234.480 40.000 C 238.578 40.000,238.167 40.501,238.167 35.506 L 238.167 31.358 237.545 30.845 L 236.924 30.333 233.997 30.333 L 231.071 30.333 230.519 30.794 M267.186 30.865 L 266.667 31.397 266.667 35.270 L 266.667 39.144 267.208 39.530 C 267.718 39.894,267.923 39.919,270.667 39.964 C 275.107 40.035,275.331 39.811,275.333 35.294 C 275.334 30.523,275.156 30.333,270.697 30.333 L 267.706 30.333 267.186 30.865 M236.958 30.754 C 237.956 31.252,238.000 31.450,238.000 35.481 C 238.000 37.493,237.954 39.258,237.899 39.403 C 237.706 39.905,231.231 39.783,230.583 39.265 L 230.083 38.865 230.083 35.212 C 230.083 31.252,230.077 31.279,231.070 30.726 C 231.627 30.415,236.324 30.438,236.958 30.754 M273.583 30.667 C 273.640 30.758,273.823 30.833,273.991 30.833 C 274.719 30.833,274.833 31.428,274.833 35.213 L 274.833 38.771 274.366 39.219 L 273.898 39.667 270.824 39.661 C 267.959 39.656,267.722 39.632,267.333 39.309 L 266.917 38.962 266.917 35.230 L 266.917 31.499 267.417 31.009 L 267.917 30.519 270.698 30.510 C 272.384 30.504,273.521 30.566,273.583 30.667 M47.352 34.760 C 46.975 35.361,46.667 35.897,46.667 35.952 C 46.667 36.007,46.472 36.308,46.233 36.620 C 45.995 36.933,45.840 37.229,45.890 37.279 C 45.940 37.329,46.248 36.949,46.574 36.435 C 46.900 35.921,47.428 35.087,47.748 34.583 C 48.068 34.079,48.264 33.667,48.183 33.667 C 48.103 33.667,47.729 34.158,47.352 34.760 M52.917 34.111 L 52.583 34.378 52.917 34.261 C 53.848 33.933,54.084 33.978,55.167 34.689 C 55.762 35.081,56.553 35.555,56.924 35.742 C 57.294 35.930,57.831 36.252,58.116 36.458 C 58.401 36.665,58.690 36.833,58.757 36.833 C 58.825 36.833,58.963 36.936,59.065 37.061 C 59.167 37.187,59.662 37.506,60.165 37.770 C 62.294 38.887,62.148 39.704,59.583 41.027 C 59.033 41.310,58.089 41.861,57.484 42.251 C 56.880 42.641,56.092 43.098,55.734 43.266 C 55.376 43.435,54.829 43.744,54.518 43.953 C 52.998 44.977,52.856 44.639,52.819 39.910 C 52.784 35.288,52.687 34.209,52.363 34.792 C 52.214 35.060,52.204 35.258,52.327 35.489 C 52.433 35.686,52.500 37.398,52.500 39.894 C 52.500 44.425,52.518 44.500,53.573 44.500 C 54.124 44.500,54.826 44.132,57.982 42.193 C 58.481 41.886,59.013 41.586,59.164 41.526 C 61.838 40.465,62.628 38.925,60.960 38.026 C 60.678 37.874,59.987 37.450,59.423 37.083 C 58.859 36.717,58.252 36.322,58.074 36.207 C 57.896 36.092,57.637 35.948,57.500 35.887 C 57.362 35.826,56.813 35.489,56.280 35.138 C 55.746 34.787,55.259 34.498,55.197 34.496 C 55.134 34.494,54.896 34.346,54.667 34.167 C 54.163 33.772,53.371 33.747,52.917 34.111 M345.537 36.259 L 345.583 38.583 346.167 38.617 L 346.750 38.651 346.230 38.493 L 345.711 38.335 345.694 36.228 C 345.685 35.070,345.635 34.080,345.584 34.028 C 345.532 33.977,345.511 34.981,345.537 36.259 M157.814 36.982 C 157.469 37.262,157.417 37.446,157.417 38.394 C 157.417 39.976,157.256 39.917,161.550 39.917 L 165.250 39.917 165.250 38.333 L 165.250 36.750 161.731 36.705 C 158.464 36.663,158.183 36.683,157.814 36.982 M248.720 36.833 C 248.278 37.013,248.054 38.165,248.278 39.109 C 248.478 39.957,248.796 40.017,252.787 39.962 L 256.083 39.917 256.083 38.333 L 256.083 36.750 252.583 36.717 C 250.658 36.699,248.920 36.751,248.720 36.833 M297.521 37.061 C 296.960 37.658,297.058 39.478,297.667 39.785 C 298.233 40.071,304.758 40.089,304.934 39.806 C 305.168 39.426,305.221 37.183,305.001 36.918 C 304.597 36.431,297.994 36.558,297.521 37.061 M164.903 36.934 C 165.113 37.015,165.167 37.305,165.167 38.351 L 165.167 39.667 161.518 39.667 C 157.400 39.667,157.667 39.763,157.667 38.275 C 157.667 36.924,157.889 36.843,161.611 36.838 C 163.277 36.835,164.758 36.879,164.903 36.934 M255.965 38.292 L 256.013 39.667 252.457 39.667 C 248.393 39.667,248.500 39.703,248.500 38.305 C 248.500 36.876,248.624 36.834,252.667 36.880 L 255.917 36.917 255.965 38.292 M304.798 38.292 L 304.847 39.667 301.382 39.661 C 297.399 39.655,297.333 39.636,297.333 38.465 C 297.333 36.957,297.598 36.861,301.667 36.893 L 304.750 36.917 304.798 38.292 M354.083 38.670 C 362.783 38.786,362.293 38.685,362.206 40.333 L 362.184 40.750 362.399 40.358 C 362.650 39.899,362.563 39.206,362.202 38.792 C 361.966 38.521,361.405 38.503,354.349 38.537 L 346.750 38.573 354.083 38.670 M362.200 42.034 C 362.182 42.557,362.080 43.175,361.973 43.409 L 361.780 43.833 358.983 43.833 C 357.445 43.833,356.151 43.890,356.109 43.958 C 356.066 44.027,357.415 44.061,359.107 44.034 C 362.619 43.979,362.375 44.110,362.291 42.318 C 362.239 41.207,362.230 41.179,362.200 42.034 M338.129 48.427 C 337.156 49.399,337.149 50.491,338.110 51.335 L 338.678 51.833 364.884 51.833 L 391.091 51.833 391.712 51.321 C 392.645 50.552,392.590 48.927,391.605 48.129 C 391.272 47.859,389.619 47.841,364.986 47.837 L 338.722 47.833 338.129 48.427 M391.429 48.347 C 392.591 49.217,392.305 50.847,390.886 51.440 C 389.948 51.832,339.297 51.761,338.623 51.367 C 337.455 50.684,337.393 49.264,338.491 48.374 C 338.994 47.967,390.886 47.940,391.429 48.347 "
              stroke="none" fill="#f5f5f5" fill-rule="evenodd"></path>
    </g>
</svg>