<svg id="svg" version="1.1" width="400" height="65.47619047619047" viewBox="0 0 400 65.47619047619047"
     xmlns="http://www.w3.org/2000/svg">
    <g id="svgg">
        <path id="path0"
              d="M12.673 18.322 C 12.558 18.536,12.500 22.502,12.500 30.034 C 12.500 42.507,12.514 42.704,13.536 44.442 C 14.229 45.623,16.343 47.499,16.983 47.501 C 17.130 47.502,17.475 47.633,17.750 47.793 C 18.533 48.248,31.063 48.233,32.172 47.776 C 35.016 46.604,36.262 45.307,37.085 42.667 C 37.460 41.459,37.503 18.377,37.130 18.140 C 36.831 17.951,32.804 17.971,32.500 18.163 C 32.282 18.301,32.247 19.756,32.228 29.452 L 32.206 40.583 31.811 41.409 C 31.574 41.906,31.130 42.453,30.695 42.784 L 29.974 43.333 25.148 43.333 C 19.590 43.333,19.246 43.257,18.250 41.810 L 17.750 41.083 17.698 29.835 C 17.651 19.831,17.616 18.554,17.380 18.293 C 16.962 17.830,12.922 17.856,12.673 18.322 M77.093 18.264 C 76.651 18.706,76.791 43.230,77.242 44.417 C 78.228 47.008,79.608 47.868,82.917 47.950 C 85.718 48.021,85.583 48.135,85.583 45.686 C 85.583 43.335,85.670 43.465,84.023 43.344 C 81.539 43.162,81.667 43.888,81.667 29.959 C 81.667 22.479,81.608 18.536,81.494 18.322 C 81.257 17.880,77.527 17.831,77.093 18.264 M161.516 18.245 C 160.772 18.514,159.000 21.673,159.000 22.732 C 159.000 22.813,158.842 23.226,158.649 23.648 C 158.036 24.988,157.862 25.394,157.497 26.333 C 157.302 26.837,157.039 27.475,156.914 27.750 C 156.789 28.025,156.525 28.662,156.328 29.167 C 156.013 29.972,155.458 31.311,154.496 33.583 C 154.341 33.950,153.929 34.962,153.580 35.833 C 153.231 36.704,152.846 37.565,152.723 37.745 C 152.600 37.926,152.500 38.198,152.500 38.350 C 152.500 38.502,152.305 39.067,152.067 39.605 C 151.829 40.143,151.524 40.846,151.388 41.167 C 151.253 41.487,151.040 41.975,150.914 42.250 C 150.789 42.525,150.410 43.462,150.072 44.333 C 149.734 45.204,149.309 46.224,149.128 46.600 C 148.513 47.877,148.570 47.910,151.454 47.963 L 153.987 48.009 154.277 47.463 C 154.570 46.911,155.043 45.695,155.346 44.717 C 155.437 44.424,155.621 43.974,155.754 43.717 C 155.888 43.460,156.001 43.137,156.004 43.000 C 156.008 42.862,156.121 42.604,156.255 42.426 C 156.390 42.249,156.500 41.967,156.500 41.801 C 156.500 40.852,156.632 40.833,163.322 40.833 L 169.477 40.833 169.790 41.292 C 169.961 41.544,170.312 42.313,170.568 43.000 C 170.825 43.688,171.102 44.380,171.184 44.539 C 171.266 44.699,171.333 44.909,171.333 45.007 C 171.333 45.199,171.825 46.390,172.294 47.333 L 172.583 47.917 174.833 47.965 C 177.876 48.030,178.293 47.872,177.578 46.926 C 177.443 46.749,177.333 46.461,177.333 46.287 C 177.333 46.113,177.109 45.485,176.834 44.892 C 176.559 44.298,176.286 43.611,176.226 43.365 C 176.167 43.118,175.988 42.654,175.829 42.333 C 175.443 41.554,175.135 40.824,174.574 39.366 C 174.317 38.697,174.045 38.111,173.970 38.065 C 173.895 38.018,173.833 37.852,173.833 37.696 C 173.833 37.540,173.683 37.132,173.500 36.790 C 173.317 36.448,173.167 36.088,173.167 35.991 C 173.167 35.894,173.027 35.500,172.857 35.116 C 172.687 34.731,172.268 33.704,171.925 32.833 C 171.583 31.962,171.200 31.025,171.074 30.750 C 170.563 29.630,170.167 28.612,170.167 28.416 C 170.167 28.301,170.054 28.114,169.917 28.000 C 169.779 27.886,169.667 27.648,169.667 27.471 C 169.667 27.294,169.523 26.872,169.346 26.533 C 169.170 26.194,168.894 25.579,168.734 25.167 C 168.573 24.754,168.304 24.102,168.137 23.717 C 167.970 23.333,167.833 22.918,167.833 22.796 C 167.833 22.674,167.735 22.426,167.614 22.245 C 167.493 22.065,167.261 21.542,167.098 21.083 C 166.497 19.395,165.966 18.497,165.512 18.402 C 165.276 18.353,164.953 18.243,164.794 18.157 C 164.390 17.938,162.201 17.997,161.516 18.245 M194.529 18.386 C 194.177 18.761,194.167 18.889,194.167 22.974 C 194.167 27.399,194.106 27.739,193.414 27.165 C 192.378 26.305,183.810 26.259,182.820 27.108 C 182.675 27.232,182.480 27.333,182.386 27.333 C 181.838 27.333,180.180 28.923,179.626 29.980 C 178.750 31.649,178.668 32.251,178.629 37.315 C 178.582 43.492,179.087 45.122,181.557 46.767 C 183.610 48.134,183.260 48.083,190.669 48.083 L 197.264 48.083 197.971 47.523 C 199.431 46.367,199.333 47.470,199.333 32.116 C 199.333 19.187,199.319 18.539,199.029 18.276 C 198.495 17.793,195.006 17.878,194.529 18.386 M136.949 20.273 C 136.885 20.337,136.833 21.769,136.833 23.455 C 136.833 26.649,136.757 27.062,136.115 27.341 C 135.914 27.428,135.637 27.568,135.500 27.652 C 135.362 27.735,134.898 27.928,134.468 28.079 C 133.055 28.575,132.811 28.877,132.868 30.060 L 132.917 31.083 134.600 31.167 C 137.017 31.286,136.797 30.652,136.869 37.718 C 136.935 44.284,136.891 43.962,137.950 45.644 C 138.317 46.227,139.629 47.207,140.714 47.709 C 141.614 48.124,147.408 48.148,147.566 47.736 C 147.621 47.591,147.667 46.659,147.667 45.665 C 147.667 43.288,147.715 43.334,145.196 43.332 C 141.671 43.330,141.667 43.321,141.667 36.786 C 141.667 30.688,141.345 31.294,144.639 31.199 C 147.841 31.108,147.745 31.187,147.599 28.753 C 147.463 26.476,147.690 26.640,144.512 26.538 C 143.039 26.491,141.819 26.445,141.801 26.435 C 141.784 26.425,141.727 25.029,141.676 23.333 L 141.583 20.250 139.324 20.204 C 138.081 20.178,137.013 20.210,136.949 20.273 M251.968 20.208 C 251.950 20.231,251.894 21.672,251.843 23.409 L 251.750 26.568 251.000 26.943 C 250.588 27.149,249.953 27.365,249.590 27.423 C 248.296 27.629,247.321 29.362,247.772 30.651 C 247.919 31.071,247.975 31.086,249.671 31.173 C 250.632 31.223,251.511 31.321,251.626 31.391 C 251.785 31.490,251.833 32.843,251.833 37.193 C 251.833 43.564,251.889 43.977,252.964 45.510 C 254.348 47.482,255.719 48.002,259.538 48.001 C 262.972 48.000,262.829 48.112,262.782 45.452 C 262.743 43.285,262.900 43.413,260.239 43.361 C 257.893 43.316,257.237 43.061,257.050 42.123 C 256.999 41.868,256.892 41.619,256.812 41.570 C 256.511 41.384,256.636 31.733,256.942 31.479 C 257.144 31.311,257.891 31.240,259.722 31.212 C 262.733 31.166,262.566 31.299,262.643 28.879 C 262.722 26.378,262.885 26.500,259.486 26.500 C 256.362 26.500,256.667 26.860,256.667 23.171 C 256.667 20.770,256.629 20.355,256.403 20.268 C 256.156 20.173,252.038 20.118,251.968 20.208 M164.333 26.907 C 164.333 27.015,164.443 27.249,164.578 27.426 C 164.713 27.604,164.825 27.884,164.828 28.047 C 164.833 28.319,165.340 29.655,165.927 30.942 C 166.059 31.231,166.167 31.540,166.167 31.629 C 166.167 31.779,166.528 32.678,167.097 33.942 C 167.227 34.231,167.333 34.543,167.333 34.637 C 167.333 34.730,167.464 35.034,167.624 35.313 C 168.124 36.184,167.970 36.216,163.351 36.206 C 158.383 36.195,158.585 36.267,159.254 34.750 C 159.375 34.475,159.526 34.043,159.589 33.790 C 159.652 33.537,159.770 33.289,159.852 33.239 C 159.933 33.188,160.000 33.028,160.000 32.883 C 160.000 32.738,160.159 32.274,160.354 31.852 C 161.208 29.999,161.333 29.704,161.333 29.545 C 161.333 29.391,161.627 28.652,162.262 27.208 C 162.533 26.593,162.862 25.814,163.161 25.083 L 163.366 24.583 163.849 25.648 C 164.116 26.233,164.333 26.800,164.333 26.907 M46.071 26.666 C 43.356 26.834,42.248 27.410,41.517 29.036 C 41.169 29.809,41.164 29.961,41.207 38.869 L 41.250 47.917 43.525 47.963 C 46.666 48.027,46.333 49.008,46.336 39.696 C 46.337 35.418,46.395 31.827,46.465 31.718 C 47.087 30.739,53.571 31.012,54.350 32.050 L 54.750 32.583 54.798 40.296 L 54.846 48.009 57.215 47.963 L 59.583 47.917 59.627 39.899 C 59.678 30.288,59.346 31.293,62.509 31.194 C 68.449 31.009,68.317 30.784,68.255 41.000 C 68.207 48.776,67.932 48.021,70.789 47.963 L 73.083 47.917 73.127 40.100 C 73.183 29.941,72.891 28.780,69.886 27.213 C 67.779 26.116,60.228 26.206,58.534 27.349 C 57.654 27.943,57.679 27.943,56.797 27.348 C 55.599 26.539,51.907 26.304,46.071 26.666 M89.000 26.715 C 88.600 26.918,88.581 26.995,88.536 28.713 C 88.465 31.404,87.954 31.166,93.798 31.170 C 101.189 31.175,101.833 31.355,101.833 33.409 C 101.833 34.624,102.049 34.570,96.750 34.681 C 90.060 34.821,89.083 35.144,87.569 37.717 L 87.000 38.685 87.000 41.321 C 87.000 44.970,87.660 46.295,90.074 47.495 L 91.158 48.035 98.788 48.015 C 105.933 47.996,106.433 47.975,106.670 47.693 C 106.988 47.314,106.975 33.663,106.655 31.833 C 106.171 29.062,104.266 27.099,101.653 26.677 C 100.025 26.414,89.534 26.446,89.000 26.715 M110.869 26.707 C 110.635 26.989,110.578 42.368,110.808 43.333 C 111.266 45.256,112.718 46.813,114.869 47.689 C 115.892 48.106,122.906 48.346,124.667 48.025 C 127.737 47.465,129.929 45.316,130.342 42.465 C 130.574 40.858,130.544 27.445,130.307 26.925 C 130.096 26.461,126.952 26.273,125.928 26.663 L 125.500 26.825 125.500 34.171 C 125.500 43.988,125.859 43.318,120.599 43.327 C 115.186 43.337,115.501 43.899,115.497 34.225 C 115.496 30.017,115.430 26.981,115.337 26.833 C 115.107 26.470,111.159 26.358,110.869 26.707 M204.347 26.711 C 203.956 26.911,203.944 26.972,203.956 28.777 C 203.973 31.466,203.323 31.200,209.934 31.230 C 216.702 31.261,216.942 31.333,217.248 33.424 C 217.422 34.607,217.533 34.579,212.548 34.623 C 205.975 34.682,204.067 35.342,202.787 38.000 C 202.221 39.174,202.235 43.922,202.807 44.956 C 203.310 45.865,204.801 47.226,205.801 47.687 C 206.541 48.029,221.345 48.219,221.872 47.893 C 222.233 47.669,222.011 31.337,221.634 30.448 C 220.724 28.301,219.243 27.080,217.058 26.676 C 215.651 26.416,204.866 26.445,204.347 26.711 M231.152 26.654 C 229.715 26.854,228.520 27.508,227.401 28.706 C 225.668 30.563,225.766 29.671,225.757 43.667 L 225.750 55.750 227.750 55.798 C 228.850 55.825,229.919 55.805,230.125 55.753 L 230.500 55.660 230.500 51.413 C 230.500 49.078,230.520 47.167,230.544 47.167 C 230.568 47.167,230.999 47.324,231.502 47.516 C 233.131 48.137,233.753 48.201,237.471 48.129 C 240.822 48.064,241.143 48.031,241.913 47.672 C 242.947 47.189,244.667 46.025,244.667 45.809 C 244.667 45.720,244.890 45.369,245.163 45.030 C 245.436 44.690,245.709 44.151,245.770 43.831 C 245.831 43.511,245.999 43.025,246.143 42.750 C 246.589 41.901,246.482 32.855,246.010 31.491 C 245.309 29.465,244.022 27.994,242.184 27.119 L 241.083 26.595 236.583 26.560 C 234.108 26.541,231.664 26.583,231.152 26.654 M266.708 26.686 L 266.167 26.843 266.169 28.796 C 266.173 31.469,265.580 31.212,271.690 31.190 C 278.684 31.166,279.081 31.270,279.279 33.189 C 279.435 34.702,279.549 34.667,274.498 34.667 C 267.660 34.667,265.819 35.432,264.650 38.758 C 263.515 41.985,265.382 47.453,267.633 47.496 C 267.752 47.498,268.080 47.619,268.362 47.765 C 268.995 48.092,283.724 48.131,284.116 47.806 C 284.482 47.503,284.427 32.802,284.054 31.250 C 283.520 29.027,281.675 27.189,279.468 26.680 C 278.498 26.457,267.485 26.462,266.708 26.686 M294.973 26.583 C 294.928 26.628,294.080 26.712,293.090 26.768 C 290.854 26.896,290.136 27.190,289.033 28.428 L 288.212 29.349 288.117 32.633 C 288.041 35.253,288.063 46.452,288.147 47.708 C 288.173 48.089,292.615 48.161,292.760 47.783 C 292.806 47.664,292.860 44.182,292.880 40.045 C 292.926 30.550,292.544 31.324,297.222 31.246 C 300.282 31.195,300.463 31.107,300.259 29.782 C 300.200 29.398,300.115 28.671,300.070 28.167 C 299.909 26.343,300.156 26.500,297.441 26.500 C 296.129 26.500,295.018 26.537,294.973 26.583 M308.333 26.674 C 307.921 26.747,307.126 26.804,306.568 26.802 C 305.999 26.799,305.340 26.905,305.068 27.042 C 304.801 27.177,304.382 27.335,304.136 27.394 C 303.401 27.570,302.563 28.760,302.263 30.053 C 301.867 31.761,301.868 47.747,302.264 47.899 C 302.648 48.046,306.547 48.018,306.787 47.866 C 306.941 47.768,307.001 45.874,307.037 40.039 L 307.083 32.341 307.512 31.912 C 308.053 31.371,309.528 31.135,312.003 31.193 C 312.967 31.216,313.848 31.177,313.961 31.107 C 314.345 30.870,314.240 26.884,313.844 26.673 C 313.473 26.474,309.462 26.475,308.333 26.674 M192.079 31.341 C 192.969 31.470,193.350 31.613,193.704 31.952 L 194.167 32.396 194.167 37.771 C 194.167 41.345,194.108 43.183,193.992 43.255 C 193.896 43.315,191.940 43.354,189.645 43.342 C 183.573 43.311,183.782 43.502,183.694 37.917 C 183.590 31.395,183.714 31.234,188.833 31.191 C 189.979 31.181,191.440 31.249,192.079 31.341 M239.833 31.482 C 241.135 31.907,241.382 33.001,241.305 37.995 C 241.222 43.391,241.293 43.319,236.035 43.327 C 230.333 43.337,230.500 43.507,230.500 37.665 C 230.500 31.160,230.514 31.144,236.167 31.239 C 237.874 31.268,239.510 31.376,239.833 31.482 M101.652 39.399 C 101.779 39.552,101.829 40.250,101.797 41.441 L 101.750 43.250 97.156 43.294 L 92.563 43.338 92.167 42.917 C 91.399 42.099,91.471 40.634,92.320 39.827 L 93.014 39.167 97.237 39.167 C 100.645 39.167,101.496 39.211,101.652 39.399 M217.085 39.336 C 217.224 39.561,217.309 41.920,217.206 42.708 L 217.124 43.333 212.492 43.333 L 207.861 43.333 207.514 42.772 C 206.833 41.670,207.044 40.208,207.976 39.575 C 208.633 39.129,216.824 38.914,217.085 39.336 M279.133 39.367 C 279.378 39.611,279.406 42.287,279.171 42.906 L 279.008 43.333 274.684 43.333 C 269.807 43.333,269.936 43.354,269.493 42.486 C 268.872 41.269,269.231 40.005,270.354 39.452 C 271.071 39.098,278.790 39.023,279.133 39.367 "
              stroke="none" fill="#f5f5f5" fill-rule="evenodd"></path>
        <path id="path1"
              d="M326.750 9.619 C 326.567 9.663,326.345 9.767,326.258 9.850 C 326.171 9.932,325.642 10.000,325.083 10.000 C 323.536 10.000,323.667 8.606,323.667 25.089 C 323.667 33.168,323.614 39.830,323.550 39.894 C 323.428 40.016,323.443 40.955,323.610 43.787 C 323.678 44.935,323.647 45.646,323.514 45.966 C 322.876 47.507,324.167 48.846,325.964 48.507 C 326.827 48.344,327.570 48.325,328.777 48.434 C 329.679 48.515,330.979 48.560,331.667 48.533 C 332.937 48.483,335.125 48.471,336.333 48.506 C 336.700 48.517,337.094 48.522,337.208 48.517 C 337.323 48.513,337.774 48.552,338.211 48.605 C 338.647 48.658,339.135 48.649,339.294 48.585 C 339.453 48.521,340.446 48.475,341.500 48.482 C 342.554 48.489,343.679 48.488,344.000 48.480 C 344.321 48.472,346.046 48.453,347.833 48.438 C 349.621 48.422,351.207 48.393,351.357 48.372 C 351.772 48.314,351.875 47.922,352.025 45.833 C 352.101 44.779,352.208 43.573,352.262 43.154 C 352.454 41.692,352.980 41.763,341.250 41.667 L 331.083 41.583 331.039 37.178 C 331.014 34.755,331.059 32.708,331.138 32.629 C 331.398 32.368,334.375 32.310,336.971 32.514 C 338.993 32.674,339.756 32.672,340.637 32.508 C 341.482 32.351,342.130 32.344,343.328 32.479 C 344.681 32.632,344.962 32.621,345.302 32.398 C 345.602 32.201,345.946 32.163,346.724 32.238 C 350.393 32.594,351.324 32.416,350.811 31.458 C 350.724 31.296,350.663 30.030,350.676 28.645 C 350.693 26.730,350.645 26.075,350.474 25.912 C 350.298 25.742,348.209 25.681,340.710 25.628 C 335.463 25.590,331.127 25.516,331.075 25.464 C 330.953 25.342,330.971 17.015,331.094 16.816 C 331.147 16.731,335.488 16.667,341.246 16.667 C 346.779 16.667,351.425 16.621,351.570 16.566 C 351.798 16.478,352.011 10.328,351.792 10.129 C 351.769 10.108,347.212 10.042,341.667 9.982 C 336.121 9.922,331.225 9.818,330.788 9.752 C 330.278 9.676,329.912 9.699,329.769 9.817 C 329.604 9.955,329.391 9.937,328.945 9.751 C 328.364 9.509,327.440 9.453,326.750 9.619 M357.580 9.839 C 357.491 9.983,357.146 10.015,356.418 9.947 C 354.882 9.804,354.148 10.479,355.000 11.250 C 355.183 11.416,355.333 11.621,355.333 11.706 C 355.333 11.791,355.585 12.173,355.893 12.555 C 356.201 12.937,356.650 13.588,356.891 14.000 C 357.133 14.412,357.556 15.004,357.832 15.314 C 358.108 15.625,358.333 15.966,358.333 16.072 C 358.333 16.179,358.593 16.525,358.911 16.841 C 359.229 17.158,359.492 17.470,359.495 17.536 C 359.498 17.601,359.728 17.976,360.006 18.369 C 360.285 18.762,360.714 19.383,360.960 19.750 C 361.207 20.117,361.654 20.724,361.954 21.100 C 362.254 21.477,362.500 21.857,362.500 21.945 C 362.500 22.034,362.708 22.340,362.962 22.624 C 363.216 22.909,363.795 23.691,364.249 24.363 C 364.703 25.034,365.414 26.047,365.829 26.614 C 366.244 27.181,366.755 27.922,366.964 28.260 L 367.345 28.875 366.989 29.562 C 366.793 29.941,366.490 30.384,366.316 30.548 C 366.142 30.712,366.000 30.926,366.000 31.024 C 366.000 31.169,365.314 32.131,364.526 33.091 C 364.447 33.187,364.095 33.675,363.743 34.175 C 363.392 34.674,362.889 35.383,362.627 35.750 C 362.365 36.117,361.898 36.796,361.591 37.259 C 361.283 37.722,360.838 38.285,360.602 38.509 C 360.366 38.733,360.171 39.048,360.170 39.208 C 360.168 39.368,359.914 39.781,359.605 40.125 C 359.297 40.469,358.997 40.902,358.940 41.087 C 358.882 41.272,358.620 41.659,358.358 41.946 C 358.096 42.233,357.838 42.581,357.785 42.719 C 357.732 42.856,357.159 43.683,356.511 44.557 C 355.863 45.430,355.333 46.193,355.333 46.253 C 355.333 46.312,355.068 46.685,354.743 47.081 L 354.153 47.801 354.675 48.172 C 355.145 48.507,355.380 48.541,357.056 48.522 C 362.559 48.456,362.445 48.482,363.374 47.065 C 363.668 46.617,364.004 46.151,364.121 46.030 C 364.238 45.909,364.333 45.735,364.333 45.645 C 364.333 45.554,364.577 45.151,364.875 44.748 C 366.099 43.095,366.429 42.621,366.667 42.178 C 367.017 41.526,367.771 40.424,368.670 39.250 C 369.091 38.700,369.722 37.800,370.073 37.250 C 371.250 35.402,371.544 35.000,371.721 35.000 C 371.952 35.000,373.129 36.326,373.269 36.744 C 373.329 36.924,373.743 37.547,374.189 38.129 C 374.635 38.711,375.000 39.292,375.000 39.421 C 375.000 39.550,375.143 39.731,375.317 39.825 C 375.492 39.918,375.798 40.314,375.998 40.706 C 376.198 41.097,376.655 41.829,377.015 42.333 C 377.817 43.459,377.931 43.625,378.903 45.083 C 381.413 48.853,381.419 48.855,386.250 48.428 C 386.525 48.404,387.286 48.372,387.941 48.358 C 389.301 48.330,389.560 48.091,389.000 47.379 C 388.817 47.146,388.667 46.893,388.667 46.817 C 388.667 46.741,388.325 46.208,387.908 45.631 C 387.490 45.055,386.931 44.246,386.666 43.833 C 386.400 43.421,386.080 42.971,385.954 42.833 C 385.829 42.696,385.548 42.283,385.330 41.917 C 385.112 41.550,384.762 41.063,384.552 40.833 C 384.342 40.604,383.926 40.026,383.627 39.548 C 382.895 38.378,380.631 35.096,379.913 34.167 C 379.595 33.754,379.268 33.267,379.186 33.083 C 379.105 32.900,378.872 32.600,378.669 32.417 C 378.465 32.234,378.186 31.859,378.047 31.584 C 377.908 31.309,377.660 30.933,377.495 30.750 C 377.330 30.567,377.007 30.059,376.776 29.622 L 376.356 28.827 376.926 27.955 C 377.835 26.564,377.902 26.470,378.184 26.186 C 378.331 26.038,378.657 25.560,378.908 25.125 C 379.159 24.690,379.428 24.333,379.505 24.333 C 379.581 24.333,379.692 24.183,379.750 23.999 C 379.853 23.675,381.175 21.813,382.083 20.712 C 382.603 20.081,383.333 19.023,383.333 18.899 C 383.333 18.852,383.545 18.537,383.804 18.199 C 384.870 16.806,386.255 14.908,386.333 14.734 C 386.379 14.631,386.663 14.218,386.963 13.815 C 389.916 9.860,390.011 10.125,385.583 9.978 C 383.842 9.920,382.170 9.817,381.868 9.749 C 381.138 9.586,380.916 9.802,379.375 12.167 C 377.325 15.311,377.255 15.414,377.121 15.474 C 377.050 15.505,376.890 15.774,376.766 16.071 C 376.641 16.369,376.338 16.831,376.092 17.098 C 375.846 17.365,375.315 18.071,374.911 18.667 C 374.508 19.262,373.848 20.237,373.445 20.833 C 373.042 21.429,372.486 22.128,372.211 22.385 L 371.710 22.854 371.265 22.094 C 371.020 21.675,370.744 21.333,370.651 21.333 C 370.559 21.333,370.374 21.090,370.241 20.792 C 370.107 20.494,369.585 19.688,369.080 19.000 C 368.574 18.313,368.071 17.563,367.962 17.333 C 367.852 17.104,367.580 16.729,367.358 16.500 C 367.136 16.271,366.870 15.889,366.769 15.652 C 366.667 15.415,366.335 14.890,366.031 14.486 C 365.728 14.081,364.957 12.945,364.319 11.960 C 363.009 9.942,363.177 10.035,360.667 9.935 C 359.704 9.897,358.644 9.814,358.311 9.750 C 357.903 9.672,357.665 9.701,357.580 9.839 M163.125 17.951 C 163.331 17.991,163.669 17.991,163.875 17.951 C 164.081 17.911,163.912 17.879,163.500 17.879 C 163.087 17.879,162.919 17.911,163.125 17.951 M17.745 29.167 C 17.745 34.987,17.766 37.369,17.792 34.458 C 17.817 31.548,17.817 26.785,17.792 23.875 C 17.766 20.965,17.745 23.346,17.745 29.167 M81.746 30.083 C 81.746 36.408,81.766 38.972,81.792 35.779 C 81.817 32.587,81.817 27.412,81.792 24.279 C 81.766 21.147,81.745 23.758,81.746 30.083 M37.383 20.000 C 37.383 20.504,37.415 20.710,37.453 20.458 C 37.491 20.206,37.491 19.794,37.453 19.542 C 37.415 19.290,37.383 19.496,37.383 20.000 M136.714 21.250 C 136.716 21.708,136.748 21.876,136.786 21.623 C 136.825 21.369,136.824 20.994,136.784 20.789 C 136.744 20.584,136.713 20.792,136.714 21.250 M37.411 30.000 C 37.411 34.813,37.432 36.781,37.458 34.375 C 37.484 31.969,37.484 28.031,37.458 25.625 C 37.432 23.219,37.411 25.188,37.411 30.000 M136.712 24.000 C 136.712 24.412,136.745 24.581,136.784 24.375 C 136.824 24.169,136.824 23.831,136.784 23.625 C 136.745 23.419,136.712 23.587,136.712 24.000 M110.685 26.728 C 110.549 26.891,110.509 28.962,110.542 34.103 L 110.587 41.250 110.627 34.075 C 110.656 28.762,110.719 26.848,110.867 26.700 C 110.977 26.590,111.023 26.500,110.970 26.500 C 110.917 26.500,110.789 26.602,110.685 26.728 M146.294 26.618 C 146.501 26.658,146.801 26.656,146.960 26.615 C 147.120 26.573,146.950 26.540,146.583 26.542 C 146.217 26.544,146.086 26.578,146.294 26.618 M147.497 27.550 L 147.577 28.417 147.633 27.686 C 147.663 27.284,147.627 26.894,147.552 26.819 C 147.478 26.744,147.453 27.073,147.497 27.550 M291.958 26.784 C 292.165 26.824,292.502 26.824,292.708 26.784 C 292.915 26.745,292.746 26.712,292.333 26.712 C 291.921 26.712,291.752 26.745,291.958 26.784 M306.711 26.786 C 306.964 26.825,307.339 26.824,307.544 26.784 C 307.749 26.744,307.542 26.713,307.083 26.714 C 306.625 26.716,306.457 26.748,306.711 26.786 M300.053 28.000 C 300.053 28.596,300.084 28.840,300.121 28.542 C 300.158 28.244,300.158 27.756,300.121 27.458 C 300.084 27.160,300.053 27.404,300.053 28.000 M262.726 28.583 C 262.725 29.408,262.754 29.767,262.788 29.380 C 262.823 28.993,262.824 28.318,262.789 27.880 C 262.755 27.442,262.726 27.758,262.726 28.583 M203.892 28.917 C 203.892 29.742,203.920 30.100,203.955 29.713 C 203.990 29.327,203.990 28.652,203.956 28.213 C 203.922 27.775,203.893 28.092,203.892 28.917 M227.573 28.375 L 227.083 28.917 227.625 28.427 C 228.130 27.971,228.243 27.833,228.115 27.833 C 228.086 27.833,227.842 28.077,227.573 28.375 M314.223 29.500 C 314.223 30.188,314.252 30.469,314.288 30.125 C 314.324 29.781,314.324 29.219,314.288 28.875 C 314.252 28.531,314.223 28.813,314.223 29.500 M132.712 30.000 C 132.712 30.412,132.745 30.581,132.784 30.375 C 132.824 30.169,132.824 29.831,132.784 29.625 C 132.745 29.419,132.712 29.587,132.712 30.000 M288.060 31.500 C 288.060 32.371,288.088 32.727,288.123 32.292 C 288.157 31.856,288.157 31.144,288.123 30.708 C 288.088 30.273,288.060 30.629,288.060 31.500 M88.811 31.211 C 88.881 31.281,91.258 31.318,94.094 31.294 L 99.250 31.250 93.966 31.167 C 91.061 31.121,88.740 31.141,88.811 31.211 M301.911 39.250 C 301.911 43.833,301.932 45.684,301.958 43.363 C 301.984 41.042,301.984 37.292,301.958 35.030 C 301.932 32.768,301.911 34.667,301.911 39.250 M49.049 31.291 C 49.764 31.322,50.889 31.322,51.549 31.290 C 52.210 31.259,51.625 31.233,50.250 31.233 C 48.875 31.234,48.335 31.259,49.049 31.291 M62.216 31.291 C 62.931 31.322,64.056 31.322,64.716 31.290 C 65.376 31.259,64.792 31.233,63.417 31.233 C 62.042 31.234,61.501 31.259,62.216 31.291 M133.958 31.289 C 134.348 31.324,134.985 31.324,135.375 31.289 C 135.765 31.254,135.446 31.225,134.667 31.225 C 133.887 31.225,133.569 31.254,133.958 31.289 M143.958 31.290 C 144.531 31.323,145.469 31.323,146.042 31.290 C 146.615 31.258,146.146 31.231,145.000 31.231 C 143.854 31.231,143.385 31.258,143.958 31.290 M187.792 31.290 C 188.456 31.322,189.544 31.322,190.208 31.290 C 190.873 31.259,190.329 31.233,189.000 31.233 C 187.671 31.233,187.127 31.259,187.792 31.290 M207.698 31.291 C 208.862 31.320,210.812 31.320,212.032 31.291 C 213.252 31.263,212.300 31.239,209.917 31.239 C 207.533 31.239,206.535 31.263,207.698 31.291 M234.383 31.291 C 235.190 31.321,236.465 31.321,237.217 31.291 C 237.968 31.260,237.308 31.235,235.750 31.235 C 234.192 31.235,233.577 31.260,234.383 31.291 M248.880 31.289 C 249.318 31.324,249.993 31.323,250.380 31.288 C 250.767 31.254,250.408 31.225,249.583 31.226 C 248.758 31.226,248.442 31.255,248.880 31.289 M258.881 31.290 C 259.412 31.323,260.237 31.323,260.714 31.289 C 261.192 31.256,260.758 31.229,259.750 31.229 C 258.742 31.229,258.351 31.257,258.881 31.290 M269.875 31.291 C 271.227 31.319,273.440 31.319,274.792 31.291 C 276.144 31.263,275.037 31.240,272.333 31.240 C 269.629 31.240,268.523 31.263,269.875 31.291 M296.375 31.290 C 296.902 31.323,297.765 31.323,298.292 31.290 C 298.819 31.257,298.387 31.230,297.333 31.230 C 296.279 31.230,295.848 31.257,296.375 31.290 M310.458 31.290 C 310.940 31.323,311.727 31.323,312.208 31.290 C 312.690 31.256,312.296 31.228,311.333 31.228 C 310.371 31.228,309.977 31.256,310.458 31.290 M136.456 31.514 C 136.607 31.708,136.674 33.156,136.708 36.931 L 136.755 42.083 136.794 36.895 C 136.830 32.125,136.810 31.689,136.542 31.479 C 136.284 31.277,136.274 31.281,136.456 31.514 M141.723 32.833 C 141.723 33.521,141.752 33.802,141.788 33.458 C 141.824 33.115,141.824 32.552,141.788 32.208 C 141.752 31.865,141.723 32.146,141.723 32.833 M284.410 39.917 C 284.410 44.042,284.432 45.705,284.458 43.614 C 284.485 41.522,284.485 38.147,284.458 36.114 C 284.432 34.080,284.410 35.792,284.410 39.917 M307.077 40.083 C 307.077 44.208,307.098 45.872,307.125 43.780 C 307.151 41.689,307.151 38.314,307.125 36.280 C 307.098 34.247,307.077 35.958,307.077 40.083 M279.212 33.500 C 279.212 33.912,279.245 34.081,279.284 33.875 C 279.324 33.669,279.324 33.331,279.284 33.125 C 279.245 32.919,279.212 33.087,279.212 33.500 M54.743 40.333 C 54.743 44.413,54.765 46.081,54.792 44.042 C 54.818 42.002,54.818 38.665,54.792 36.625 C 54.765 34.585,54.743 36.254,54.743 40.333 M178.565 35.167 C 178.565 36.404,178.592 36.910,178.624 36.292 C 178.656 35.673,178.656 34.660,178.624 34.042 C 178.592 33.423,178.565 33.929,178.565 35.167 M246.393 34.833 C 246.393 35.704,246.422 36.060,246.456 35.625 C 246.490 35.190,246.490 34.477,246.456 34.042 C 246.422 33.606,246.393 33.962,246.393 34.833 M292.908 39.500 C 292.908 42.754,292.931 44.085,292.958 42.458 C 292.985 40.831,292.985 38.169,292.958 36.542 C 292.931 34.915,292.908 36.246,292.908 39.500 M222.068 37.000 C 222.068 38.512,222.093 39.131,222.124 38.375 C 222.155 37.619,222.155 36.381,222.124 35.625 C 222.093 34.869,222.068 35.487,222.068 37.000 M94.718 34.625 C 95.984 34.653,98.009 34.653,99.218 34.624 C 100.427 34.596,99.392 34.573,96.917 34.573 C 94.442 34.573,93.452 34.596,94.718 34.625 M208.797 34.623 C 209.282 34.657,210.032 34.656,210.464 34.622 C 210.896 34.588,210.500 34.560,209.583 34.561 C 208.667 34.561,208.313 34.589,208.797 34.623 M212.883 34.624 C 213.597 34.655,214.722 34.655,215.383 34.624 C 216.043 34.592,215.458 34.566,214.083 34.567 C 212.708 34.567,212.168 34.593,212.883 34.624 M272.365 34.624 C 273.529 34.653,275.479 34.653,276.698 34.625 C 277.918 34.596,276.967 34.573,274.583 34.573 C 272.200 34.573,271.202 34.596,272.365 34.624 M68.228 37.333 C 68.228 38.296,68.256 38.690,68.290 38.208 C 68.323 37.727,68.323 36.940,68.290 36.458 C 68.256 35.977,68.228 36.371,68.228 37.333 M203.742 36.542 L 203.083 37.250 203.792 36.591 C 204.181 36.229,204.500 35.910,204.500 35.883 C 204.500 35.757,204.355 35.883,203.742 36.542 M166.375 36.282 C 166.535 36.323,166.798 36.323,166.958 36.282 C 167.119 36.240,166.987 36.205,166.667 36.205 C 166.346 36.205,166.215 36.240,166.375 36.282 M288.050 37.833 C 288.050 38.337,288.081 38.544,288.119 38.292 C 288.158 38.040,288.158 37.627,288.119 37.375 C 288.081 37.123,288.050 37.329,288.050 37.833 M246.372 38.833 C 246.372 39.154,246.406 39.285,246.448 39.125 C 246.490 38.965,246.490 38.702,246.448 38.542 C 246.406 38.381,246.372 38.512,246.372 38.833 M32.214 39.250 C 32.216 39.708,32.248 39.876,32.286 39.623 C 32.325 39.369,32.324 38.994,32.284 38.789 C 32.244 38.584,32.213 38.792,32.214 39.250 M86.900 41.333 C 86.900 42.662,86.925 43.206,86.957 42.542 C 86.989 41.877,86.989 40.790,86.957 40.125 C 86.925 39.460,86.900 40.004,86.900 41.333 M95.032 39.291 C 96.195 39.320,98.145 39.320,99.365 39.291 C 100.585 39.263,99.633 39.239,97.250 39.239 C 94.867 39.239,93.868 39.263,95.032 39.291 M210.532 39.291 C 211.695 39.320,213.645 39.320,214.865 39.291 C 216.085 39.263,215.133 39.239,212.750 39.239 C 210.367 39.239,209.368 39.263,210.532 39.291 M272.885 39.291 C 274.059 39.320,275.934 39.320,277.051 39.291 C 278.169 39.262,277.208 39.239,274.917 39.239 C 272.625 39.239,271.711 39.263,272.885 39.291 M279.228 41.083 C 279.228 42.000,279.256 42.354,279.290 41.869 C 279.324 41.385,279.323 40.635,279.289 40.203 C 279.255 39.770,279.227 40.167,279.228 41.083 M202.220 41.333 C 202.220 41.929,202.250 42.173,202.287 41.875 C 202.324 41.577,202.324 41.090,202.287 40.792 C 202.250 40.494,202.220 40.737,202.220 41.333 M222.057 41.583 C 222.058 42.317,222.087 42.596,222.122 42.204 C 222.157 41.812,222.157 41.212,222.121 40.871 C 222.085 40.529,222.057 40.850,222.057 41.583 M269.212 41.333 C 269.212 41.746,269.245 41.915,269.284 41.708 C 269.324 41.502,269.324 41.165,269.284 40.958 C 269.245 40.752,269.212 40.921,269.212 41.333 M157.460 40.951 C 157.668 40.991,157.968 40.990,158.127 40.948 C 158.286 40.906,158.117 40.874,157.750 40.875 C 157.383 40.877,157.253 40.911,157.460 40.951 M165.320 40.958 C 168.226 40.992,169.465 41.065,169.653 41.211 C 169.886 41.393,169.890 41.383,169.688 41.125 C 169.480 40.859,169.093 40.837,165.355 40.872 L 161.250 40.910 165.320 40.958 M91.709 41.583 C 91.711 41.950,91.745 42.080,91.785 41.873 C 91.824 41.666,91.823 41.366,91.781 41.206 C 91.739 41.047,91.707 41.217,91.709 41.583 M288.056 42.167 C 288.056 42.854,288.085 43.135,288.121 42.792 C 288.157 42.448,288.157 41.885,288.121 41.542 C 288.085 41.198,288.056 41.479,288.056 42.167 M110.545 42.000 C 110.545 42.412,110.578 42.581,110.618 42.375 C 110.657 42.169,110.657 41.831,110.618 41.625 C 110.578 41.419,110.545 41.587,110.545 42.000 M68.217 43.333 C 68.217 43.837,68.248 44.044,68.286 43.792 C 68.324 43.540,68.324 43.127,68.286 42.875 C 68.248 42.623,68.217 42.829,68.217 43.333 M262.705 45.167 C 262.705 45.487,262.740 45.619,262.782 45.458 C 262.823 45.298,262.823 45.035,262.782 44.875 C 262.740 44.715,262.705 44.846,262.705 45.167 M222.052 46.583 C 222.053 47.133,222.084 47.338,222.121 47.039 C 222.158 46.739,222.157 46.289,222.119 46.039 C 222.081 45.788,222.051 46.033,222.052 46.583 M288.045 46.333 C 288.045 46.746,288.078 46.915,288.118 46.708 C 288.157 46.502,288.157 46.165,288.118 45.958 C 288.078 45.752,288.045 45.921,288.045 46.333 M262.872 46.667 C 262.872 46.987,262.906 47.119,262.948 46.958 C 262.990 46.798,262.990 46.535,262.948 46.375 C 262.906 46.215,262.872 46.346,262.872 46.667 M292.875 46.750 C 292.877 47.117,292.911 47.247,292.951 47.040 C 292.991 46.832,292.990 46.532,292.948 46.373 C 292.906 46.214,292.874 46.383,292.875 46.750 M70.833 48.000 L 68.583 48.098 70.782 48.132 C 72.106 48.153,73.021 48.100,73.083 48.000 C 73.140 47.908,73.163 47.849,73.135 47.868 C 73.107 47.886,72.071 47.946,70.833 48.000 M42.125 48.121 C 42.423 48.158,42.910 48.158,43.208 48.121 C 43.506 48.084,43.262 48.053,42.667 48.053 C 42.071 48.053,41.827 48.084,42.125 48.121 M82.381 48.123 C 82.912 48.157,83.737 48.156,84.214 48.123 C 84.692 48.089,84.258 48.062,83.250 48.062 C 82.242 48.063,81.851 48.090,82.381 48.123 M95.719 48.125 C 97.260 48.152,99.735 48.152,101.219 48.125 C 102.703 48.097,101.442 48.075,98.417 48.075 C 95.392 48.075,94.178 48.097,95.719 48.125 M143.466 48.124 C 144.227 48.155,145.427 48.155,146.133 48.124 C 146.839 48.093,146.217 48.067,144.750 48.067 C 143.283 48.068,142.706 48.093,143.466 48.124 M149.542 48.119 C 149.794 48.158,150.206 48.158,150.458 48.119 C 150.710 48.081,150.504 48.050,150.000 48.050 C 149.496 48.050,149.290 48.081,149.542 48.119 M152.542 48.119 C 152.794 48.158,153.206 48.158,153.458 48.119 C 153.710 48.081,153.504 48.050,153.000 48.050 C 152.496 48.050,152.290 48.081,152.542 48.119 M173.708 48.123 C 174.235 48.156,175.098 48.156,175.625 48.123 C 176.152 48.090,175.721 48.063,174.667 48.063 C 173.612 48.063,173.181 48.090,173.708 48.123 M212.219 48.125 C 213.668 48.153,215.993 48.152,217.385 48.125 C 218.778 48.097,217.592 48.074,214.750 48.074 C 211.908 48.074,210.769 48.097,212.219 48.125 M258.458 48.123 C 258.940 48.157,259.727 48.157,260.208 48.123 C 260.690 48.089,260.296 48.062,259.333 48.062 C 258.371 48.062,257.977 48.089,258.458 48.123 M273.719 48.125 C 275.628 48.152,278.703 48.152,280.553 48.125 C 282.403 48.098,280.842 48.076,277.083 48.076 C 273.325 48.076,271.811 48.098,273.719 48.125 M302.792 48.118 C 302.998 48.157,303.335 48.157,303.542 48.118 C 303.748 48.078,303.579 48.045,303.167 48.045 C 302.754 48.045,302.585 48.078,302.792 48.118 M321.535 54.215 C 321.149 54.608,320.832 55.076,320.831 55.256 C 320.829 55.436,320.765 55.683,320.688 55.804 C 320.491 56.116,320.900 57.208,321.427 57.777 L 321.865 58.250 355.346 58.250 L 388.827 58.250 389.329 57.748 C 389.974 57.103,390.383 55.688,390.054 55.238 C 389.933 55.072,389.833 54.782,389.833 54.593 C 389.833 54.359,389.608 54.130,389.125 53.874 L 388.417 53.499 355.326 53.500 L 322.236 53.500 321.535 54.215 "
              stroke="none" fill="#f7c13c" fill-rule="evenodd"></path>
    </g>
</svg>