<svg id="svg" version="1.1" width="400" height="172.04301075268816" viewBox="0 0 400 172.04301075268816"
     xmlns="http://www.w3.org/2000/svg">
    <g id="svgg">
        <path id="path0"
              d="M268.043 9.802 C 266.387 9.866,264.761 10.007,264.430 10.114 C 264.099 10.221,262.667 10.472,261.247 10.673 C 258.874 11.008,258.556 11.096,257.290 11.775 C 256.533 12.181,255.367 12.676,254.699 12.875 C 254.031 13.075,253.146 13.483,252.732 13.782 C 252.318 14.082,251.576 14.513,251.082 14.739 C 250.503 15.004,249.906 15.475,249.401 16.066 C 248.724 16.859,248.472 17.023,247.535 17.285 C 246.718 17.513,246.315 17.741,245.894 18.213 C 243.968 20.373,243.634 20.840,243.193 21.996 C 242.885 22.801,242.531 23.389,242.167 23.699 C 241.861 23.959,241.242 24.733,240.792 25.419 C 240.342 26.105,239.913 26.667,239.838 26.667 C 239.688 26.667,238.796 28.571,238.796 28.892 C 238.796 29.004,238.401 29.513,237.919 30.023 C 237.437 30.532,236.829 31.399,236.568 31.948 C 236.307 32.497,235.819 33.274,235.482 33.675 C 235.130 34.094,234.712 34.892,234.498 35.555 C 234.016 37.047,233.606 37.833,233.032 38.366 C 232.777 38.602,232.421 39.084,232.240 39.437 C 232.059 39.789,231.577 40.454,231.168 40.915 C 230.619 41.533,230.337 42.059,230.094 42.922 C 229.854 43.771,229.607 44.238,229.192 44.626 C 228.877 44.921,228.356 45.608,228.034 46.154 C 227.711 46.701,227.147 47.436,226.780 47.789 C 226.309 48.242,226.005 48.761,225.741 49.560 C 225.473 50.376,225.174 50.878,224.668 51.366 C 224.283 51.739,223.793 52.432,223.580 52.908 C 223.367 53.383,222.886 54.177,222.512 54.672 C 222.137 55.167,221.688 55.968,221.514 56.453 C 221.320 56.992,220.935 57.575,220.522 57.957 C 220.151 58.300,219.582 59.100,219.259 59.734 C 218.935 60.368,218.448 61.142,218.176 61.454 C 217.904 61.766,217.333 62.563,216.907 63.226 C 216.480 63.888,215.930 64.615,215.685 64.842 C 215.437 65.070,215.073 65.748,214.868 66.363 C 214.625 67.093,214.241 67.764,213.745 68.321 C 213.331 68.788,212.836 69.475,212.645 69.849 C 212.455 70.222,212.057 70.803,211.762 71.140 C 211.401 71.551,211.095 72.212,210.829 73.152 C 210.478 74.396,210.346 74.628,209.642 75.229 C 209.206 75.602,208.735 76.182,208.594 76.519 C 208.453 76.857,208.002 77.491,207.592 77.929 C 207.039 78.521,206.790 78.969,206.626 79.664 C 206.341 80.878,206.200 81.149,205.420 81.978 C 204.987 82.438,204.644 83.059,204.386 83.849 C 204.174 84.499,203.864 85.157,203.697 85.311 C 202.364 86.539,202.161 86.799,201.895 87.620 C 201.735 88.113,201.315 88.903,200.961 89.376 C 200.607 89.849,200.112 90.590,199.861 91.021 C 199.609 91.453,199.199 91.995,198.950 92.226 C 198.701 92.456,198.244 93.196,197.935 93.870 C 197.626 94.543,197.103 95.395,196.772 95.762 C 196.441 96.129,195.939 96.933,195.657 97.548 C 195.374 98.163,194.894 98.899,194.589 99.183 C 194.283 99.467,193.811 100.189,193.538 100.787 C 193.265 101.385,192.692 102.341,192.263 102.911 C 191.835 103.482,191.484 104.058,191.484 104.193 C 191.484 104.420,190.849 105.186,188.553 107.728 C 187.807 108.553,187.595 108.951,187.170 110.322 C 186.774 111.603,186.489 112.165,185.804 113.019 C 185.327 113.612,184.815 114.342,184.665 114.640 C 184.515 114.939,184.134 115.454,183.818 115.785 C 183.502 116.116,183.041 116.844,182.794 117.404 C 182.548 117.963,182.087 118.723,181.770 119.092 C 181.454 119.462,181.021 120.228,180.810 120.794 C 180.523 121.562,180.229 121.983,179.653 122.456 C 179.101 122.908,178.722 123.436,178.327 124.304 C 178.022 124.973,177.539 125.788,177.253 126.115 C 176.968 126.442,176.561 127.058,176.349 127.484 C 176.136 127.910,175.594 128.614,175.144 129.049 C 174.412 129.757,174.295 129.978,174.036 131.143 C 173.786 132.268,173.665 132.508,173.149 132.901 C 172.821 133.151,172.322 133.814,172.039 134.373 C 171.757 134.933,171.258 135.634,170.931 135.932 C 170.551 136.277,170.163 136.916,169.856 137.698 C 169.575 138.416,169.074 139.264,168.645 139.747 C 168.243 140.200,167.914 140.676,167.914 140.806 C 167.914 140.935,167.469 141.548,166.925 142.168 C 163.956 145.551,164.034 145.442,163.627 146.766 C 163.027 148.723,162.914 148.970,162.270 149.738 C 161.940 150.130,161.459 150.916,161.200 151.484 C 160.941 152.052,160.449 152.783,160.106 153.109 C 159.367 153.813,159.367 153.813,159.908 154.456 C 160.953 155.698,160.664 155.677,176.344 155.630 C 189.915 155.589,190.405 155.576,191.601 155.233 C 192.741 154.907,193.892 154.291,193.892 154.009 C 193.892 153.943,194.228 153.482,194.637 152.982 C 195.053 152.475,195.511 151.665,195.674 151.146 C 195.835 150.635,196.231 149.844,196.554 149.388 C 196.877 148.932,197.372 148.128,197.654 147.601 C 197.948 147.052,198.431 146.465,198.786 146.225 C 199.222 145.930,199.583 145.434,200.008 144.544 C 200.339 143.850,200.832 142.998,201.102 142.651 C 201.372 142.305,201.736 141.634,201.910 141.161 C 202.108 140.623,202.528 140.011,203.030 139.527 C 203.571 139.006,203.982 138.387,204.288 137.635 C 204.562 136.959,205.038 136.212,205.493 135.743 C 205.906 135.316,206.401 134.653,206.594 134.268 C 206.786 133.883,207.210 133.248,207.536 132.857 C 207.985 132.320,208.183 131.864,208.349 130.984 C 208.551 129.912,208.643 129.749,209.504 128.929 C 210.034 128.423,210.619 127.647,210.857 127.135 C 211.087 126.638,211.507 125.968,211.789 125.646 C 212.072 125.324,212.529 124.614,212.805 124.067 C 213.137 123.410,213.535 122.923,213.982 122.627 C 214.406 122.347,214.799 121.880,215.036 121.377 C 215.243 120.935,215.706 120.286,216.064 119.935 C 216.598 119.412,216.754 119.098,216.932 118.186 C 217.157 117.032,217.540 116.251,218.155 115.695 C 218.352 115.516,218.826 114.771,219.207 114.039 C 219.623 113.239,220.139 112.524,220.500 112.249 C 220.893 111.949,221.295 111.366,221.662 110.562 C 221.970 109.886,222.364 109.217,222.536 109.075 C 222.708 108.933,223.261 108.178,223.765 107.398 C 224.268 106.617,224.745 105.978,224.825 105.978 C 225.043 105.978,225.703 104.722,225.988 103.765 C 226.126 103.298,226.551 102.540,226.931 102.081 C 227.311 101.623,227.783 100.914,227.981 100.507 C 228.179 100.100,228.661 99.389,229.052 98.927 C 229.443 98.466,229.910 97.715,230.090 97.259 C 230.269 96.803,230.706 96.043,231.059 95.570 C 231.413 95.097,231.874 94.361,232.084 93.935 C 232.294 93.510,232.835 92.774,233.288 92.301 C 233.897 91.664,234.207 91.145,234.480 90.304 C 234.706 89.610,235.086 88.907,235.457 88.498 C 235.791 88.129,236.208 87.557,236.383 87.226 C 236.559 86.895,237.096 86.255,237.577 85.804 C 238.058 85.354,238.453 84.889,238.456 84.772 C 238.468 84.117,239.350 82.495,239.993 81.945 C 240.382 81.612,240.862 81.019,241.061 80.627 C 241.259 80.235,241.671 79.636,241.976 79.296 C 242.377 78.850,242.615 78.326,242.836 77.404 C 243.105 76.284,243.241 76.035,243.955 75.353 C 244.402 74.927,244.944 74.230,245.159 73.805 C 245.375 73.380,245.808 72.745,246.123 72.395 C 246.489 71.987,246.830 71.315,247.068 70.530 C 247.329 69.670,247.685 68.999,248.256 68.287 C 248.705 67.728,249.238 66.814,249.441 66.256 C 249.719 65.494,250.003 65.084,250.586 64.607 C 251.012 64.258,251.483 63.727,251.634 63.427 C 251.785 63.127,252.242 62.533,252.650 62.108 C 253.195 61.539,253.470 61.059,253.681 60.301 C 253.914 59.468,254.142 59.103,254.859 58.407 C 255.445 57.840,255.823 57.298,255.966 56.820 C 256.086 56.420,256.483 55.748,256.849 55.325 C 257.249 54.862,257.663 54.110,257.887 53.435 C 258.245 52.360,258.418 52.124,259.491 51.236 C 259.850 50.939,260.055 50.513,260.302 49.548 C 260.579 48.464,260.731 48.178,261.255 47.757 C 261.670 47.423,262.094 46.791,262.524 45.864 C 263.236 44.329,264.157 43.343,265.576 42.592 C 266.034 42.349,266.694 41.910,267.042 41.614 L 267.675 41.077 268.848 41.429 C 269.494 41.623,270.409 41.831,270.882 41.891 C 273.434 42.217,276.302 43.136,276.763 43.776 C 276.903 43.970,277.245 44.516,277.523 44.989 C 277.802 45.462,278.290 46.173,278.608 46.568 C 278.926 46.963,279.401 47.850,279.664 48.538 C 279.935 49.247,280.416 50.091,280.774 50.486 C 281.121 50.869,281.726 51.622,282.118 52.160 C 282.510 52.697,282.915 53.188,283.018 53.252 C 283.121 53.315,283.471 53.927,283.796 54.612 C 284.183 55.426,284.617 56.041,285.054 56.392 C 285.675 56.891,285.730 57.010,285.846 58.090 C 285.976 59.305,286.278 59.754,287.535 60.604 C 287.811 60.790,288.124 61.293,288.351 61.916 C 288.553 62.471,289.029 63.301,289.409 63.760 C 289.788 64.219,290.276 64.945,290.493 65.373 C 290.710 65.801,291.210 66.409,291.603 66.725 C 292.045 67.079,292.471 67.642,292.715 68.195 C 292.933 68.688,293.389 69.478,293.730 69.952 C 294.070 70.425,294.510 71.191,294.709 71.653 C 294.907 72.116,295.371 72.822,295.740 73.223 C 296.225 73.748,296.518 74.303,296.792 75.212 C 297.107 76.256,297.304 76.592,297.937 77.161 C 298.357 77.540,298.919 78.280,299.186 78.806 C 299.453 79.332,299.800 79.870,299.958 80.001 C 300.116 80.132,300.579 80.902,300.987 81.711 C 301.395 82.521,301.940 83.376,302.198 83.613 C 302.456 83.849,302.881 84.514,303.142 85.089 C 303.402 85.665,303.845 86.400,304.127 86.724 C 304.797 87.495,304.968 87.837,305.546 89.569 C 305.899 90.626,306.219 91.225,306.721 91.771 C 307.101 92.183,307.603 92.819,307.837 93.185 C 308.071 93.550,308.513 94.082,308.820 94.366 C 309.127 94.649,309.567 95.308,309.799 95.828 C 310.031 96.348,310.440 97.006,310.708 97.290 C 310.976 97.574,311.488 98.348,311.845 99.011 C 312.203 99.673,312.783 100.546,313.134 100.951 C 313.490 101.362,313.950 102.190,314.175 102.828 C 314.428 103.544,314.845 104.266,315.295 104.767 C 315.689 105.205,316.236 106.028,316.511 106.595 C 317.056 107.720,318.037 109.113,319.233 110.460 C 319.655 110.935,320.204 111.727,320.454 112.221 C 320.704 112.714,321.196 113.446,321.548 113.846 C 321.900 114.246,322.358 115.040,322.566 115.610 C 322.774 116.180,323.252 117.002,323.628 117.437 C 324.005 117.872,324.514 118.627,324.761 119.114 C 325.008 119.601,325.504 120.335,325.864 120.745 C 326.350 121.298,326.568 121.740,326.708 122.465 C 326.980 123.869,327.128 124.142,327.936 124.727 C 328.863 125.399,329.012 125.635,329.277 126.859 C 329.460 127.702,329.642 128.017,330.382 128.775 C 332.010 130.440,333.022 131.692,333.373 132.473 C 333.564 132.899,333.999 133.512,334.340 133.836 C 334.767 134.242,335.075 134.777,335.331 135.557 C 335.610 136.408,335.887 136.863,336.448 137.393 C 336.909 137.828,337.396 138.546,337.721 139.270 C 338.011 139.916,338.504 140.728,338.818 141.075 C 339.132 141.423,339.599 142.151,339.855 142.692 C 340.112 143.234,340.590 143.975,340.919 144.339 C 341.260 144.716,341.676 145.470,341.886 146.091 C 342.142 146.851,342.498 147.441,343.062 148.042 C 343.507 148.516,344.029 149.213,344.222 149.591 C 344.415 149.970,344.908 150.559,345.318 150.901 C 345.896 151.382,346.154 151.776,346.460 152.646 C 346.904 153.903,346.988 153.996,348.559 154.940 L 349.677 155.613 364.502 155.613 L 379.327 155.613 379.757 155.209 C 380.855 154.177,380.744 152.697,379.438 150.958 C 379.016 150.395,378.669 149.880,378.668 149.813 C 378.661 149.316,377.829 147.633,377.273 146.991 C 376.901 146.561,376.472 145.964,376.320 145.664 C 376.167 145.364,375.634 144.687,375.136 144.160 C 374.413 143.397,374.167 142.980,373.921 142.106 C 373.696 141.301,373.432 140.824,372.931 140.312 C 372.556 139.927,372.099 139.276,371.916 138.865 C 371.732 138.454,371.330 137.835,371.023 137.489 C 370.715 137.143,370.209 136.379,369.899 135.791 C 369.589 135.203,369.027 134.390,368.651 133.985 C 368.275 133.579,367.786 132.899,367.565 132.473 C 367.343 132.047,366.857 131.371,366.484 130.970 C 365.967 130.413,365.733 129.956,365.495 129.038 C 365.235 128.038,365.056 127.714,364.429 127.117 C 364.015 126.722,363.524 126.075,363.338 125.679 C 363.152 125.283,362.731 124.700,362.403 124.382 C 361.955 123.947,361.699 123.450,361.372 122.380 C 360.999 121.157,360.839 120.876,360.236 120.392 C 359.849 120.082,359.339 119.441,359.101 118.968 C 358.863 118.495,358.403 117.779,358.077 117.378 C 357.752 116.977,357.261 116.153,356.986 115.547 C 356.711 114.940,356.190 114.102,355.828 113.685 C 355.413 113.205,355.050 112.527,354.844 111.845 C 354.634 111.151,354.337 110.601,354.015 110.307 C 352.911 109.301,352.678 108.948,352.320 107.741 C 352.049 106.828,351.800 106.354,351.411 106.013 C 350.431 105.152,349.024 103.324,348.604 102.366 C 348.376 101.845,347.850 101.071,347.436 100.645 C 347.021 100.219,346.453 99.368,346.173 98.753 C 345.893 98.138,345.379 97.363,345.030 97.032 C 344.681 96.701,344.221 96.039,344.007 95.561 C 343.794 95.082,343.377 94.416,343.082 94.080 C 342.787 93.744,342.306 92.935,342.014 92.283 C 341.660 91.494,341.225 90.866,340.714 90.409 C 340.054 89.816,339.898 89.541,339.598 88.430 C 339.312 87.371,339.127 87.027,338.569 86.513 C 338.195 86.168,337.733 85.533,337.542 85.100 C 337.350 84.667,336.911 83.944,336.566 83.491 C 336.221 83.039,335.751 82.183,335.521 81.589 C 335.213 80.791,334.909 80.350,334.356 79.897 C 333.945 79.560,333.436 78.923,333.225 78.481 C 333.014 78.039,332.555 77.348,332.205 76.946 C 331.855 76.543,331.392 75.730,331.177 75.139 C 330.898 74.375,330.548 73.832,329.962 73.261 C 329.392 72.705,329.080 72.229,328.947 71.713 C 328.560 70.210,328.411 69.899,327.809 69.321 C 327.472 68.997,327.017 68.383,326.799 67.957 C 326.581 67.531,326.084 66.927,325.694 66.614 C 325.304 66.301,324.799 65.677,324.571 65.227 C 324.343 64.777,323.886 64.085,323.555 63.690 C 323.192 63.255,322.773 62.428,322.498 61.603 C 322.248 60.851,321.805 59.940,321.514 59.580 C 321.223 59.220,320.731 58.373,320.421 57.699 C 320.059 56.914,319.659 56.334,319.308 56.083 C 318.969 55.842,318.576 55.285,318.281 54.628 C 318.019 54.042,317.561 53.287,317.264 52.949 C 316.967 52.611,316.495 51.827,316.213 51.207 C 315.857 50.421,315.515 49.952,315.083 49.659 C 314.278 49.111,314.045 48.759,313.652 47.497 C 313.472 46.920,313.077 46.168,312.768 45.816 C 312.461 45.466,312.034 44.788,311.820 44.310 C 311.607 43.832,311.155 43.176,310.816 42.851 C 310.418 42.470,310.039 41.832,309.745 41.045 C 309.445 40.243,309.039 39.564,308.555 39.054 C 308.151 38.628,307.649 37.931,307.440 37.505 C 307.231 37.080,306.811 36.460,306.507 36.129 C 305.891 35.459,304.181 32.623,303.660 31.407 C 303.474 30.974,302.972 30.246,302.544 29.788 C 302.076 29.288,301.484 28.346,301.060 27.428 C 300.671 26.587,300.137 25.654,299.873 25.353 C 299.609 25.052,299.258 24.392,299.093 23.887 C 298.601 22.385,298.395 22.108,297.344 21.547 C 296.361 21.022,293.207 17.991,292.046 16.455 C 291.690 15.984,291.139 15.600,290.138 15.124 C 289.344 14.747,288.608 14.268,288.449 14.027 C 288.055 13.424,287.483 13.170,285.145 12.558 C 284.019 12.262,282.644 11.785,282.090 11.496 C 281.362 11.117,280.613 10.906,279.388 10.735 C 278.456 10.605,277.399 10.387,277.040 10.252 C 276.681 10.117,275.574 9.961,274.581 9.906 C 273.587 9.851,272.387 9.779,271.914 9.745 C 271.441 9.712,269.699 9.737,268.043 9.802 M37.998 15.305 C 36.722 15.436,34.774 16.417,33.553 17.544 C 32.133 18.855,32.258 13.601,32.258 72.000 L 32.258 123.785 32.645 124.855 C 32.897 125.550,33.032 126.315,33.032 127.038 C 33.032 127.651,33.111 128.200,33.207 128.260 C 33.613 128.510,34.087 129.824,34.248 131.143 C 34.491 133.145,34.849 134.263,35.529 135.155 C 36.083 135.880,36.497 136.928,36.738 138.212 C 36.795 138.515,37.184 139.147,37.603 139.617 C 38.102 140.176,38.490 140.844,38.725 141.552 C 39.331 143.373,45.683 149.503,48.172 150.668 C 48.882 151.001,49.656 151.424,49.892 151.609 C 50.366 151.979,51.057 152.298,52.434 152.783 C 52.933 152.959,53.675 153.342,54.083 153.635 C 54.631 154.029,55.135 154.212,56.006 154.336 C 56.655 154.428,57.679 154.617,58.281 154.757 C 58.883 154.896,59.866 155.011,60.466 155.011 C 61.085 155.011,62.058 155.166,62.720 155.371 C 63.644 155.656,64.617 155.760,67.426 155.874 C 69.374 155.954,71.277 156.100,71.656 156.199 C 72.120 156.320,80.642 156.380,97.861 156.383 L 123.378 156.387 125.216 155.775 C 126.366 155.392,128.057 155.012,129.735 154.759 C 132.197 154.387,132.549 154.288,134.033 153.543 C 134.922 153.096,135.957 152.622,136.333 152.490 C 136.710 152.357,137.369 152.023,137.799 151.748 C 138.229 151.473,139.232 150.969,140.028 150.629 C 141.505 149.998,141.934 149.687,144.131 147.652 C 147.600 144.438,148.270 143.717,148.809 142.612 C 149.450 141.296,150.952 139.058,151.918 137.978 C 152.687 137.120,153.363 136.075,154.646 133.763 C 155.119 132.912,155.787 131.944,156.132 131.613 C 156.477 131.282,157.013 130.585,157.324 130.065 C 158.765 127.649,160.218 125.310,160.423 125.075 C 160.547 124.933,160.845 124.430,161.084 123.957 C 161.323 123.484,161.937 122.574,162.449 121.936 C 163.349 120.812,164.063 119.679,165.144 117.655 C 165.429 117.122,165.947 116.387,166.297 116.021 C 166.646 115.654,167.204 114.890,167.535 114.323 C 167.866 113.755,168.382 112.942,168.680 112.516 C 168.979 112.090,169.505 111.161,169.851 110.452 C 170.196 109.742,170.802 108.774,171.198 108.301 C 171.593 107.828,172.053 107.123,172.221 106.735 C 172.388 106.347,172.756 105.766,173.037 105.445 C 173.319 105.123,173.823 104.344,174.158 103.713 C 174.492 103.082,175.077 102.172,175.456 101.692 C 175.836 101.211,176.302 100.405,176.491 99.899 C 176.680 99.394,177.192 98.291,177.628 97.447 C 178.104 96.530,178.493 95.499,178.598 94.882 C 178.947 92.822,178.834 18.205,178.481 17.522 C 177.931 16.459,177.505 16.024,176.621 15.624 L 175.742 15.226 165.075 15.171 C 151.485 15.102,151.279 15.126,150.906 16.831 C 150.023 20.868,149.991 21.325,150.101 28.436 C 150.158 32.147,150.204 35.880,150.203 36.731 C 150.198 40.590,150.200 74.530,150.206 76.989 C 150.209 78.503,150.150 82.452,150.074 85.763 L 149.935 91.785 149.032 93.684 C 148.535 94.729,148.129 95.669,148.129 95.773 C 148.129 95.877,147.795 96.339,147.388 96.799 C 146.980 97.258,146.462 97.944,146.237 98.323 C 146.012 98.701,145.502 99.437,145.103 99.957 C 144.704 100.477,144.205 101.313,143.993 101.814 C 143.780 102.315,143.355 102.934,143.047 103.190 C 142.740 103.446,142.243 104.073,141.945 104.582 C 141.646 105.091,141.100 105.865,140.732 106.302 C 140.363 106.739,139.863 107.546,139.620 108.096 C 139.377 108.645,138.841 109.458,138.428 109.902 C 138.016 110.346,137.504 111.058,137.292 111.484 C 136.857 112.354,134.922 115.023,134.355 115.536 C 134.151 115.720,133.754 116.335,133.472 116.903 C 133.191 117.471,132.628 118.245,132.220 118.624 C 131.696 119.110,131.345 119.658,131.022 120.495 C 130.500 121.846,128.537 124.187,127.464 124.739 C 127.122 124.915,126.618 125.244,126.346 125.470 C 124.629 126.892,123.120 126.968,96.811 126.966 L 74.237 126.965 72.386 126.545 C 71.368 126.314,70.322 126.007,70.063 125.863 C 69.804 125.720,69.011 125.324,68.301 124.983 C 66.742 124.235,65.209 122.809,64.519 121.462 C 64.253 120.942,63.826 120.323,63.571 120.086 C 62.930 119.491,62.855 119.319,62.232 117.031 L 61.682 115.011 61.591 82.237 C 61.521 56.863,61.452 49.327,61.288 48.861 C 60.986 48.008,61.017 44.488,61.338 43.104 C 61.813 41.056,61.632 18.081,61.133 17.000 C 60.656 15.969,59.887 15.561,57.963 15.320 C 56.387 15.122,39.905 15.110,37.998 15.305 M59.183 15.813 C 60.010 16.136,60.300 16.419,60.763 17.350 L 61.161 18.151 61.213 29.846 C 61.261 40.539,61.239 41.644,60.963 42.749 C 60.577 44.289,60.546 48.256,60.912 49.290 C 61.118 49.871,61.170 55.062,61.245 82.495 L 61.333 115.011 61.719 116.301 C 61.931 117.011,62.220 118.024,62.361 118.553 C 62.530 119.188,62.825 119.736,63.230 120.164 C 63.567 120.522,64.035 121.195,64.271 121.660 C 64.882 122.866,66.580 124.502,67.759 125.021 C 68.294 125.257,68.983 125.640,69.291 125.874 C 69.657 126.151,70.489 126.443,71.699 126.717 L 73.548 127.137 97.039 127.138 C 124.537 127.140,124.894 127.122,126.642 125.662 C 127.045 125.326,127.663 124.903,128.017 124.723 C 128.370 124.542,128.834 124.142,129.049 123.832 C 129.263 123.522,129.759 122.919,130.150 122.492 C 130.579 122.025,131.055 121.224,131.347 120.481 C 131.697 119.588,132.008 119.104,132.470 118.733 C 132.822 118.450,133.309 117.797,133.555 117.277 C 133.800 116.759,134.296 116.029,134.657 115.656 C 135.693 114.582,136.928 112.906,137.592 111.673 C 137.929 111.048,138.455 110.267,138.762 109.935 C 139.069 109.604,139.570 108.830,139.875 108.215 C 140.180 107.600,140.725 106.775,141.086 106.381 C 141.447 105.987,141.933 105.291,142.167 104.833 C 142.401 104.375,142.879 103.729,143.230 103.398 C 143.580 103.067,144.016 102.452,144.199 102.032 C 144.382 101.612,144.906 100.760,145.363 100.140 C 145.820 99.519,146.352 98.701,146.544 98.323 C 146.736 97.944,147.134 97.406,147.428 97.126 C 147.722 96.847,148.445 95.647,149.035 94.460 L 150.108 92.301 150.222 86.366 C 150.285 83.101,150.413 80.004,150.507 79.484 C 150.621 78.849,150.616 77.489,150.491 75.355 C 150.374 73.344,150.326 66.028,150.360 55.484 C 150.391 46.305,150.405 37.867,150.394 36.731 C 150.382 35.596,150.351 31.686,150.326 28.043 L 150.280 21.419 150.761 18.941 C 151.026 17.577,151.315 16.326,151.404 16.161 C 151.738 15.536,153.363 15.458,164.817 15.515 L 175.742 15.570 176.568 15.976 C 177.142 16.259,177.574 16.652,177.987 17.265 L 178.581 18.146 178.581 54.893 C 178.581 96.776,178.648 94.535,177.297 97.290 C 176.787 98.331,176.281 99.469,176.174 99.818 C 176.067 100.168,175.599 100.969,175.134 101.600 C 174.668 102.230,174.099 103.145,173.868 103.631 C 173.637 104.118,173.244 104.748,172.993 105.032 C 172.742 105.316,172.315 105.974,172.044 106.495 C 171.773 107.015,171.225 107.828,170.825 108.301 C 170.426 108.774,169.866 109.665,169.580 110.280 C 169.294 110.895,168.850 111.669,168.593 112.000 C 168.336 112.331,167.834 113.144,167.478 113.806 C 167.121 114.469,166.540 115.320,166.186 115.699 C 165.590 116.337,164.487 118.072,163.691 119.622 C 163.506 119.983,163.065 120.641,162.710 121.085 C 162.091 121.861,161.105 123.289,160.474 124.325 C 160.310 124.596,159.803 125.440,159.348 126.201 C 158.894 126.962,158.196 128.039,157.799 128.594 C 157.401 129.150,157.075 129.702,157.075 129.821 C 157.075 129.940,156.696 130.452,156.232 130.959 C 155.768 131.467,155.006 132.537,154.538 133.339 C 152.954 136.050,152.431 136.858,151.708 137.705 C 150.629 138.970,148.828 141.730,148.473 142.664 C 148.160 143.489,146.264 145.540,144.989 146.433 C 144.682 146.648,144.080 147.176,143.652 147.606 C 142.126 149.139,141.141 149.851,139.699 150.464 C 138.895 150.806,137.958 151.275,137.619 151.505 C 137.279 151.735,136.388 152.158,135.640 152.445 C 134.892 152.732,133.858 153.204,133.342 153.494 C 132.556 153.935,131.914 154.097,129.385 154.494 C 127.724 154.754,125.610 155.209,124.686 155.505 L 123.007 156.043 97.933 156.039 C 75.823 156.036,72.728 156.004,71.742 155.768 C 71.072 155.607,69.208 155.443,67.097 155.359 C 64.932 155.272,63.138 155.113,62.452 154.945 C 61.837 154.795,60.873 154.671,60.311 154.669 C 58.752 154.665,54.899 153.831,54.280 153.363 C 53.996 153.149,53.222 152.771,52.559 152.524 C 51.897 152.277,50.929 151.815,50.409 151.497 C 49.888 151.179,48.943 150.685,48.309 150.399 C 47.675 150.113,46.785 149.535,46.331 149.115 C 45.877 148.695,45.171 148.113,44.763 147.821 C 44.355 147.529,43.804 146.995,43.539 146.634 C 43.028 145.938,40.834 143.803,40.038 143.226 C 39.727 143.001,39.356 142.379,38.965 141.427 C 38.616 140.579,38.119 139.718,37.774 139.363 C 37.325 138.901,37.090 138.419,36.807 137.376 C 36.376 135.789,36.234 135.472,35.692 134.882 C 35.159 134.302,34.646 132.669,34.503 131.097 C 34.428 130.266,34.227 129.469,33.939 128.860 C 33.604 128.150,33.503 127.690,33.536 127.017 C 33.570 126.321,33.470 125.898,33.091 125.125 L 32.602 124.129 32.602 71.914 L 32.602 19.699 32.975 18.901 C 33.379 18.035,34.659 16.999,36.561 15.999 L 37.573 15.467 48.077 15.523 C 56.450 15.567,58.703 15.626,59.183 15.813 M260.817 93.023 C 260.675 93.074,260.049 93.371,259.425 93.684 C 258.801 93.996,257.955 94.342,257.545 94.453 C 256.784 94.657,255.828 95.486,255.828 95.941 C 255.828 96.275,255.346 97.208,254.948 97.645 C 254.431 98.211,254.307 100.020,254.744 100.611 C 255.763 101.990,255.688 100.307,255.716 122.657 C 255.741 142.225,255.755 143.090,256.061 143.577 C 257.690 146.169,262.108 147.020,264.086 145.125 C 264.417 144.807,265.198 144.319,265.821 144.040 C 266.489 143.740,267.099 143.327,267.309 143.032 C 267.556 142.685,268.071 142.378,269.001 142.023 C 269.736 141.742,270.690 141.221,271.121 140.865 C 271.581 140.485,272.298 140.107,272.856 139.950 C 274.396 139.519,274.689 139.362,275.236 138.682 C 275.632 138.189,276.060 137.924,277.035 137.569 C 277.875 137.262,278.513 136.896,278.896 136.502 C 279.216 136.171,279.944 135.680,280.513 135.410 C 281.083 135.139,281.729 134.724,281.949 134.487 C 282.170 134.250,282.944 133.803,283.670 133.494 C 284.492 133.144,285.287 132.648,285.780 132.176 C 286.395 131.588,286.864 131.329,287.888 131.013 C 288.748 130.748,289.452 130.396,289.916 129.998 C 290.311 129.660,291.120 129.225,291.732 129.021 C 292.339 128.819,293.160 128.391,293.557 128.070 C 293.955 127.749,294.758 127.247,295.342 126.953 C 296.043 126.602,296.563 126.192,296.870 125.750 C 297.173 125.313,297.662 124.924,298.278 124.633 C 301.928 122.906,303.208 117.937,300.419 116.323 C 299.990 116.074,299.285 115.534,298.852 115.121 C 298.419 114.709,297.639 114.183,297.118 113.952 C 296.598 113.721,295.901 113.316,295.570 113.051 C 294.829 112.458,294.193 112.131,293.071 111.764 C 292.595 111.609,291.827 111.169,291.364 110.786 C 290.901 110.403,290.117 109.898,289.622 109.664 C 289.127 109.430,288.517 108.969,288.265 108.639 C 288.014 108.310,287.483 107.876,287.087 107.675 C 286.690 107.475,286.015 106.986,285.588 106.588 C 284.997 106.040,284.530 105.790,283.648 105.552 C 282.657 105.283,282.357 105.103,281.593 104.318 C 281.102 103.812,280.631 103.398,280.548 103.398 C 279.906 103.398,278.408 102.752,277.770 102.200 C 277.345 101.831,276.463 101.338,275.754 101.073 C 274.977 100.781,274.231 100.353,273.806 99.953 C 273.428 99.596,272.770 99.134,272.344 98.925 C 271.918 98.716,271.259 98.245,270.879 97.878 C 270.397 97.413,269.797 97.078,268.903 96.774 C 267.994 96.465,267.418 96.140,266.928 95.661 C 266.548 95.289,265.849 94.815,265.376 94.608 C 264.903 94.401,264.243 94.017,263.909 93.755 C 263.530 93.458,262.921 93.208,262.286 93.091 C 261.183 92.887,261.195 92.888,260.817 93.023 "
              stroke="none" fill="#f7c13c" fill-rule="evenodd"></path>
        <path id="path1"
              d="M36.561 15.999 C 34.659 16.999,33.379 18.035,32.975 18.901 L 32.602 19.699 32.602 71.914 L 32.602 124.129 33.091 125.125 C 33.470 125.898,33.570 126.321,33.536 127.017 C 33.503 127.690,33.604 128.150,33.939 128.860 C 34.227 129.469,34.428 130.266,34.503 131.097 C 34.646 132.669,35.159 134.302,35.692 134.882 C 36.234 135.472,36.376 135.789,36.807 137.376 C 37.090 138.419,37.325 138.901,37.774 139.363 C 38.119 139.718,38.616 140.579,38.965 141.427 C 39.356 142.379,39.727 143.001,40.038 143.226 C 40.834 143.803,43.028 145.938,43.539 146.634 C 43.804 146.995,44.355 147.529,44.763 147.821 C 45.171 148.113,45.877 148.695,46.331 149.115 C 46.785 149.535,47.675 150.113,48.309 150.399 C 48.943 150.685,49.888 151.179,50.409 151.497 C 50.929 151.815,51.897 152.277,52.559 152.524 C 53.222 152.771,53.996 153.149,54.280 153.363 C 54.899 153.831,58.752 154.665,60.311 154.669 C 60.873 154.671,61.837 154.795,62.452 154.945 C 63.138 155.113,64.932 155.272,67.097 155.359 C 69.208 155.443,71.072 155.607,71.742 155.768 C 72.728 156.004,75.823 156.036,97.933 156.039 L 123.007 156.043 124.686 155.505 C 125.610 155.209,127.724 154.754,129.385 154.494 C 131.914 154.097,132.556 153.935,133.342 153.494 C 133.858 153.204,134.892 152.732,135.640 152.445 C 136.388 152.158,137.279 151.735,137.619 151.505 C 137.958 151.275,138.895 150.806,139.699 150.464 C 141.141 149.851,142.126 149.139,143.652 147.606 C 144.080 147.176,144.682 146.648,144.989 146.433 C 146.264 145.540,148.160 143.489,148.473 142.664 C 148.828 141.730,150.629 138.970,151.708 137.705 C 152.431 136.858,152.954 136.050,154.538 133.339 C 155.006 132.537,155.768 131.467,156.232 130.959 C 156.696 130.452,157.075 129.940,157.075 129.821 C 157.075 129.702,157.401 129.150,157.799 128.594 C 158.196 128.039,158.894 126.962,159.348 126.201 C 159.803 125.440,160.310 124.596,160.474 124.325 C 161.105 123.289,162.091 121.861,162.710 121.085 C 163.065 120.641,163.506 119.983,163.691 119.622 C 164.487 118.072,165.590 116.337,166.186 115.699 C 166.540 115.320,167.121 114.469,167.478 113.806 C 167.834 113.144,168.336 112.331,168.593 112.000 C 168.850 111.669,169.294 110.895,169.580 110.280 C 169.866 109.665,170.426 108.774,170.825 108.301 C 171.225 107.828,171.773 107.015,172.044 106.495 C 172.315 105.974,172.742 105.316,172.993 105.032 C 173.244 104.748,173.637 104.118,173.868 103.631 C 174.099 103.145,174.668 102.230,175.134 101.600 C 175.599 100.969,176.067 100.168,176.174 99.818 C 176.281 99.469,176.787 98.331,177.297 97.290 C 178.648 94.535,178.581 96.776,178.581 54.893 L 178.581 18.146 177.987 17.265 C 177.574 16.652,177.142 16.259,176.568 15.976 L 175.742 15.570 164.817 15.515 C 153.363 15.458,151.738 15.536,151.404 16.161 C 151.315 16.326,151.026 17.577,150.761 18.941 L 150.280 21.419 150.326 28.043 C 150.351 31.686,150.382 35.596,150.394 36.731 C 150.405 37.867,150.391 46.305,150.360 55.484 C 150.326 66.028,150.374 73.344,150.491 75.355 C 150.616 77.489,150.621 78.849,150.507 79.484 C 150.413 80.004,150.285 83.101,150.222 86.366 L 150.108 92.301 149.035 94.460 C 148.445 95.647,147.722 96.847,147.428 97.126 C 147.134 97.406,146.736 97.944,146.544 98.323 C 146.352 98.701,145.820 99.519,145.363 100.140 C 144.906 100.760,144.382 101.612,144.199 102.032 C 144.016 102.452,143.580 103.067,143.230 103.398 C 142.879 103.729,142.401 104.375,142.167 104.833 C 141.933 105.291,141.447 105.987,141.086 106.381 C 140.725 106.775,140.180 107.600,139.875 108.215 C 139.570 108.830,139.069 109.604,138.762 109.935 C 138.455 110.267,137.929 111.048,137.592 111.673 C 136.928 112.906,135.693 114.582,134.657 115.656 C 134.296 116.029,133.800 116.759,133.555 117.277 C 133.309 117.797,132.822 118.450,132.470 118.733 C 132.008 119.104,131.697 119.588,131.347 120.481 C 131.055 121.224,130.579 122.025,130.150 122.492 C 129.759 122.919,129.263 123.522,129.049 123.832 C 128.834 124.142,128.370 124.542,128.017 124.723 C 127.663 124.903,127.045 125.326,126.642 125.662 C 124.894 127.122,124.537 127.140,97.039 127.138 L 73.548 127.137 71.699 126.717 C 70.489 126.443,69.657 126.151,69.291 125.874 C 68.983 125.640,68.294 125.257,67.759 125.021 C 66.580 124.502,64.882 122.866,64.271 121.660 C 64.035 121.195,63.567 120.522,63.230 120.164 C 62.825 119.736,62.530 119.188,62.361 118.553 C 62.220 118.024,61.931 117.011,61.719 116.301 L 61.333 115.011 61.245 82.495 C 61.170 55.062,61.118 49.871,60.912 49.290 C 60.546 48.256,60.577 44.289,60.963 42.749 C 61.239 41.644,61.261 40.539,61.213 29.846 L 61.161 18.151 60.763 17.350 C 59.850 15.514,60.359 15.588,48.077 15.523 L 37.573 15.467 36.561 15.999 "
              stroke="none" fill="#46474d" fill-rule="evenodd"></path>
    </g>
</svg>